<svg width="497" height="406" viewBox="0 0 497 406" fill="none" xmlns="http://www.w3.org/2000/svg">
<path d="M3 53C3 25.3858 25.3858 3 53 3H444C471.614 3 494 25.3858 494 53V353C494 380.614 471.614 403 444 403H53C25.3858 403 3 380.614 3 353V53Z" fill="black"/>
<path fill-rule="evenodd" clip-rule="evenodd" d="M301.357 88.1943L335.04 81.4554C331.228 64.6082 323.398 51.1772 311.549 41.1625C299.7 31.0542 283.46 26 262.827 26C248.493 26 235.774 28.7143 224.67 34.1428C213.567 39.4778 204.867 46.9186 198.57 56.4654C192.272 66.0121 189.124 77.15 189.124 89.879C189.124 105.229 193.349 117.911 201.801 127.926C208.192 135.424 217.184 141.402 228.778 145.857L176.96 148.204C176.595 142.814 175.135 132.032 169.295 122.868C163.09 113.165 153.6 108.314 141.19 107.775C140.095 107.775 139 108.853 139 111.009C139 112.626 140.095 114.243 141.19 114.243C152.505 114.783 160.9 119.095 166.375 127.72C172.945 138.501 172.945 151.978 172.945 151.978L179.15 276.5V305.071C179.15 306.688 180.245 308.305 181.34 308.305H331.355C332.45 308.305 333.545 306.688 333.545 305.071C333.545 303.453 332.45 301.836 331.355 301.836H183.895V279.735L333.91 251.165C334.64 251.165 335.37 250.087 335.735 249.008L358 144.431C358 143.353 358 142.275 357.27 141.196C356.905 140.657 356.175 140.118 355.445 140.118L322.573 141.608C314.043 133.718 302.041 127.754 286.567 123.714L256.24 115.852C245.717 113.044 238.094 109.44 233.371 105.041C228.648 100.642 226.286 94.8396 226.286 87.6327C226.286 79.3027 229.808 72.517 236.851 67.2757C243.894 61.9407 252.677 59.2732 263.2 59.2732C270.906 59.2732 277.328 60.6772 282.465 63.485C287.603 66.2929 291.663 69.8963 294.646 74.2953C297.711 78.6943 299.949 83.3273 301.357 88.1943ZM247.823 151.436L273.641 157.829C282.755 160.169 289.508 163.632 293.9 168.219C298.374 172.805 300.612 178.467 300.612 185.206C300.612 193.536 296.966 200.603 289.674 206.406C282.382 212.115 272.646 214.97 260.466 214.97C249.28 214.97 240.207 212.302 233.246 206.967C226.286 201.539 221.688 193.536 219.45 182.96L183.531 189.137C186.596 208.231 194.882 222.972 208.389 233.361C221.895 243.657 239.337 248.804 260.715 248.804C276.126 248.804 289.674 245.95 301.357 240.24C313.123 234.531 322.279 226.669 328.825 216.654C335.454 206.546 338.768 195.034 338.768 182.117C338.768 168.319 335.244 156.855 328.194 147.727L352.89 146.587L331.72 244.696L183.53 272.727L177.69 154.673L247.823 151.436Z" fill="white"/>
<path fill-rule="evenodd" clip-rule="evenodd" d="M325.15 350.891C325.15 334.719 316.39 321.782 305.44 321.782C294.49 321.782 285.73 335.258 285.73 350.891C285.73 367.063 294.49 380 305.44 380C316.39 380 325.15 367.063 325.15 350.891ZM320.77 351.43C320.77 363.828 313.835 374.07 305.44 374.07C297.045 374.07 290.11 363.828 290.11 351.43C290.11 339.031 297.045 328.789 305.44 328.789C313.835 328.789 320.77 339.031 320.77 351.43Z" fill="white"/>
<path fill-rule="evenodd" clip-rule="evenodd" d="M226.965 350.891C226.965 334.719 218.205 321.782 207.255 321.782C196.305 321.782 187.545 335.258 187.545 350.891C187.545 367.063 196.305 380 207.255 380C218.205 380 226.965 367.063 226.965 350.891ZM222.585 351.43C222.585 363.828 215.65 374.07 207.255 374.07C198.86 374.07 191.925 363.828 191.925 351.43C191.925 339.031 198.86 328.789 207.255 328.789C215.65 328.789 222.585 339.031 222.585 351.43Z" fill="white"/>
<path d="M444 1.5H53C24.5573 1.5 1.5 24.5573 1.5 53V353C1.5 381.443 24.5573 404.5 53 404.5H444C472.443 404.5 495.5 381.443 495.5 353V53C495.5 24.5573 472.443 1.5 444 1.5Z" stroke="white" stroke-width="3"/>
</svg>
