<svg width="107" height="176" viewBox="0 0 107 176" fill="none" xmlns="http://www.w3.org/2000/svg">
<mask id="path-1-outside-1_310_50" maskUnits="userSpaceOnUse" x="0" y="0" width="107" height="176" fill="black">
<rect fill="white" width="107" height="176"/>
<path d="M18.0528 146.242L14.4354 146.793C14.3331 146.283 14.1541 145.803 13.8983 145.355C13.6499 144.906 13.3137 144.544 12.8899 144.268C12.466 143.993 11.9472 143.855 11.3333 143.855C10.5075 143.855 9.81331 144.105 9.25061 144.605C8.69522 145.105 8.42118 145.752 8.42849 146.548C8.42118 147.231 8.60022 147.787 8.96561 148.216C9.3383 148.644 9.95215 148.996 10.8072 149.271L13.6791 150.128C15.2722 150.608 16.456 151.367 17.2307 152.408C18.0126 153.448 18.4072 154.81 18.4145 156.493C18.4072 157.972 18.0966 159.277 17.4828 160.409C16.8762 161.531 16.0322 162.409 14.9506 163.041C13.8691 163.673 12.6268 163.99 11.2237 163.99C9.16292 163.99 7.50406 163.388 6.24713 162.184C4.9902 160.97 4.24116 159.282 4 157.12L7.86945 156.6C8.04483 157.661 8.41753 158.461 8.98753 159.002C9.55753 159.542 10.2993 159.813 11.2127 159.813C12.1554 159.813 12.9118 159.542 13.4818 159.002C14.0591 158.461 14.3478 157.793 14.3478 156.998C14.3478 156.324 14.1614 155.769 13.7887 155.33C13.4233 154.891 12.8533 154.555 12.0787 154.32L9.20676 153.479C7.59175 153.01 6.39694 152.219 5.62232 151.107C4.8477 149.985 4.46404 148.568 4.47135 146.854C4.46404 145.406 4.74539 144.151 5.31539 143.09C5.8927 142.019 6.6929 141.193 7.71598 140.612C8.74638 140.02 9.93388 139.724 11.2785 139.724C13.2516 139.724 14.8045 140.311 15.9372 141.484C17.0772 142.657 17.7824 144.243 18.0528 146.242Z"/>
<path d="M24.1113 149.761V163.531H20.1432V132.197H24.0236V144.024H24.2209C24.6155 142.698 25.2257 141.652 26.0515 140.887C26.8845 140.112 27.9442 139.724 29.2303 139.724C30.3996 139.724 31.419 140.066 32.2886 140.75C33.1582 141.433 33.8305 142.432 34.3056 143.748C34.7879 145.064 35.029 146.67 35.029 148.568V163.531H31.0609V149.424C31.0609 147.843 30.7686 146.614 30.184 145.737C29.6067 144.85 28.7955 144.406 27.7505 144.406C27.049 144.406 26.4205 144.62 25.8651 145.049C25.317 145.467 24.8859 146.074 24.5716 146.869C24.2647 147.665 24.1113 148.629 24.1113 149.761Z"/>
<path d="M44.8747 163.99C43.2305 163.99 41.8055 163.485 40.5997 162.475C39.3939 161.465 38.4585 160.052 37.7935 158.237C37.1358 156.421 36.807 154.3 36.807 151.872C36.807 149.445 37.1358 147.318 37.7935 145.492C38.4585 143.667 39.3939 142.249 40.5997 141.239C41.8055 140.229 43.2305 139.724 44.8747 139.724C46.519 139.724 47.944 140.229 49.1498 141.239C50.3555 142.249 51.2873 143.667 51.945 145.492C52.61 147.318 52.9425 149.445 52.9425 151.872C52.9425 154.3 52.61 156.421 51.945 158.237C51.2873 160.052 50.3555 161.465 49.1498 162.475C47.944 163.485 46.519 163.99 44.8747 163.99ZM44.8967 159.553C45.7882 159.553 46.5336 159.211 47.1328 158.528C47.7321 157.834 48.1778 156.906 48.4701 155.743C48.7698 154.58 48.9196 153.285 48.9196 151.857C48.9196 150.419 48.7698 149.118 48.4701 147.956C48.1778 146.783 47.7321 145.849 47.1328 145.156C46.5336 144.462 45.7882 144.115 44.8967 144.115C43.9832 144.115 43.2232 144.462 42.6166 145.156C42.0174 145.849 41.568 146.783 41.2684 147.956C40.9761 149.118 40.8299 150.419 40.8299 151.857C40.8299 153.285 40.9761 154.58 41.2684 155.743C41.568 156.906 42.0174 157.834 42.6166 158.528C43.2232 159.211 43.9832 159.553 44.8967 159.553Z"/>
<path d="M54.767 172.343V140.03H58.6694V143.917H58.8996C59.1042 143.345 59.3928 142.738 59.7655 142.096C60.1382 141.443 60.6425 140.887 61.2782 140.428C61.914 139.959 62.7252 139.724 63.7117 139.724C65.0125 139.724 66.1854 140.189 67.2304 141.117C68.2827 142.035 69.1158 143.396 69.7296 145.202C70.3508 146.997 70.6614 149.2 70.6614 151.811C70.6614 154.392 70.3581 156.585 69.7516 158.39C69.145 160.195 68.3192 161.572 67.2742 162.521C66.2292 163.469 65.0454 163.944 63.7227 163.944C62.7581 163.944 61.9578 163.719 61.3221 163.27C60.6863 162.822 60.1748 162.281 59.7875 161.649C59.4075 161.006 59.1115 160.399 58.8996 159.828H58.7351V172.343H54.767ZM58.6584 151.78C58.6584 153.3 58.8119 154.631 59.1188 155.774C59.433 156.916 59.8825 157.809 60.4671 158.451C61.059 159.083 61.7752 159.4 62.6155 159.4C63.4925 159.4 64.2269 159.073 64.8188 158.42C65.4108 157.758 65.8565 156.855 66.1561 155.712C66.4631 154.56 66.6165 153.249 66.6165 151.78C66.6165 150.322 66.4667 149.027 66.1671 147.894C65.8675 146.762 65.4217 145.875 64.8298 145.232C64.2379 144.59 63.4998 144.268 62.6155 144.268C61.7678 144.268 61.048 144.58 60.4561 145.202C59.8642 145.824 59.4148 146.696 59.1078 147.818C58.8082 148.94 58.6584 150.261 58.6584 151.78Z"/>
<path d="M72.5161 172.343V140.03H76.4184V143.917H76.6486C76.8532 143.345 77.1419 142.738 77.5146 142.096C77.8873 141.443 78.3915 140.887 79.0273 140.428C79.663 139.959 80.4742 139.724 81.4607 139.724C82.7615 139.724 83.9344 140.189 84.9794 141.117C86.0317 142.035 86.8648 143.396 87.4787 145.202C88.0998 146.997 88.4104 149.2 88.4104 151.811C88.4104 154.392 88.1071 156.585 87.5006 158.39C86.894 160.195 86.0683 161.572 85.0233 162.521C83.9783 163.469 82.7944 163.944 81.4717 163.944C80.5071 163.944 79.7069 163.719 79.0711 163.27C78.4353 162.822 77.9238 162.281 77.5365 161.649C77.1565 161.006 76.8605 160.399 76.6486 159.828H76.4842V172.343H72.5161ZM76.4074 151.78C76.4074 153.3 76.5609 154.631 76.8678 155.774C77.1821 156.916 77.6315 157.809 78.2161 158.451C78.808 159.083 79.5242 159.4 80.3646 159.4C81.2415 159.4 81.9759 159.073 82.5679 158.42C83.1598 157.758 83.6056 156.855 83.9052 155.712C84.2121 154.56 84.3656 153.249 84.3656 151.78C84.3656 150.322 84.2158 149.027 83.9161 147.894C83.6165 146.762 83.1707 145.875 82.5788 145.232C81.9869 144.59 81.2488 144.268 80.3646 144.268C79.5169 144.268 78.7971 144.58 78.2051 145.202C77.6132 145.824 77.1638 146.696 76.8569 147.818C76.5572 148.94 76.4074 150.261 76.4074 151.78Z"/>
<path d="M95.1101 164.005C94.0432 164.005 93.0822 163.74 92.2272 163.209C91.3795 162.669 90.7072 161.873 90.2103 160.823C89.7207 159.772 89.4759 158.477 89.4759 156.936C89.4759 155.61 89.6513 154.514 90.002 153.647C90.3528 152.78 90.8315 152.086 91.438 151.566C92.0445 151.046 92.7278 150.653 93.4878 150.388C94.2551 150.113 95.048 149.914 95.8665 149.792C96.853 149.649 97.6532 149.521 98.2671 149.409C98.8809 149.287 99.3267 149.103 99.6044 148.858C99.8894 148.603 100.032 148.211 100.032 147.68V147.588C100.032 146.436 99.7871 145.543 99.2975 144.911C98.8078 144.279 98.1027 143.962 97.1819 143.962C96.2099 143.962 95.439 144.258 94.869 144.85C94.3063 145.441 93.9263 146.14 93.729 146.946L90.024 146.211C90.3163 144.783 90.7986 143.59 91.4709 142.631C92.1432 141.662 92.9653 140.938 93.9372 140.459C94.9092 139.969 95.9834 139.724 97.16 139.724C97.9711 139.724 98.7786 139.857 99.5825 140.122C100.386 140.387 101.121 140.826 101.786 141.438C102.451 142.04 102.984 142.861 103.386 143.901C103.795 144.942 104 146.242 104 147.803V163.531H100.185V160.302H100.054C99.8127 160.955 99.4729 161.567 99.0344 162.138C98.6032 162.699 98.0588 163.153 97.4011 163.5C96.7507 163.837 95.9871 164.005 95.1101 164.005ZM96.1405 159.935C96.9371 159.935 97.6276 159.716 98.2123 159.277C98.7969 158.828 99.2463 158.237 99.5605 157.503C99.8821 156.768 100.043 155.967 100.043 155.1V152.331C99.9186 152.474 99.7067 152.607 99.4071 152.729C99.1148 152.851 98.7859 152.959 98.4205 153.05C98.0552 153.142 97.6934 153.224 97.3353 153.295C96.9773 153.367 96.6667 153.428 96.4036 153.479C95.8117 153.591 95.2819 153.775 94.8142 154.03C94.3465 154.285 93.9774 154.642 93.707 155.1C93.4367 155.549 93.3015 156.131 93.3015 156.845C93.3015 157.865 93.5682 158.635 94.1017 159.155C94.6351 159.675 95.3148 159.935 96.1405 159.935Z"/>
<path fill-rule="evenodd" clip-rule="evenodd" d="M73.1085 25.6986L85.4014 23.2392C84.0103 17.0906 81.1525 12.1888 76.8281 8.53375C72.5037 4.84458 66.5765 3 59.0465 3C53.8148 3 49.1729 3.99061 45.1206 5.97183C41.0683 7.91889 37.8931 10.6345 35.5947 14.1187C33.2964 17.603 32.1473 21.6679 32.1473 26.3135C32.1473 31.9156 33.6896 36.5441 36.7741 40.1991C39.1065 42.9359 42.3883 45.1173 46.6196 46.7433L27.708 47.6001C27.5748 45.6327 27.042 41.698 24.9106 38.3534C22.646 34.8122 19.1825 33.0415 14.6533 32.8448C14.2536 32.8448 13.854 33.2383 13.854 34.0252C13.854 34.6154 14.2536 35.2056 14.6533 35.2056C18.7828 35.4024 21.8467 36.9763 23.8449 40.1241C26.2427 44.0588 26.2427 48.9772 26.2427 48.9772L28.5073 94.4235V104.851C28.5073 105.441 28.9069 106.031 29.3066 106.031H84.0566C84.4562 106.031 84.8558 105.441 84.8558 104.851C84.8558 104.26 84.4562 103.67 84.0566 103.67H30.2391V95.604L84.9891 85.1769C85.2555 85.1769 85.5219 84.7834 85.6551 84.3899L93.781 46.2229C93.781 45.8294 93.781 45.436 93.5146 45.0425C93.3814 44.8458 93.115 44.649 92.8485 44.649L80.8514 45.1925C77.7383 42.3133 73.358 40.1364 67.7105 38.662L56.6424 35.7926C52.8018 34.7679 50.0196 33.4527 48.2959 31.8473C46.5722 30.2418 45.7103 28.1239 45.7103 25.4937C45.7103 22.4535 46.9955 19.977 49.566 18.0641C52.1365 16.117 55.342 15.1435 59.1826 15.1435C61.995 15.1435 64.3386 15.6559 66.2136 16.6807C68.0885 17.7054 69.5703 19.0206 70.659 20.626C71.7779 22.2315 72.5944 23.9224 73.1085 25.6986ZM53.5706 48.7796L62.9929 51.1129C66.3194 51.9669 68.784 53.2308 70.3868 54.9046C72.0198 56.5784 72.8363 58.645 72.8363 61.1044C72.8363 64.1446 71.5057 66.7236 68.8445 68.8414C66.1833 70.9251 62.63 71.967 58.1846 71.967C54.1021 71.967 50.7908 70.9934 48.2505 69.0464C45.7103 67.0652 44.0319 64.1446 43.2154 60.2846L30.106 62.5391C31.2249 69.5075 34.249 74.8876 39.1783 78.6792C44.1075 82.4367 50.4732 84.3155 58.2754 84.3155C63.9002 84.3155 68.8445 83.2736 73.1085 81.1899C77.4027 79.1062 80.7443 76.2368 83.1333 72.5818C85.5526 68.8927 86.7622 64.6911 86.7622 59.9772C86.7622 54.9411 85.4757 50.7573 82.9028 47.4259L91.9161 47.0099L84.1898 82.816L30.1058 93.0464L27.9745 49.9609L53.5706 48.7796Z"/>
<path fill-rule="evenodd" clip-rule="evenodd" d="M81.792 121.573C81.792 115.671 78.5949 110.949 74.5985 110.949C70.6022 110.949 67.4051 115.868 67.4051 121.573C67.4051 127.475 70.6022 132.197 74.5985 132.197C78.5949 132.197 81.792 127.475 81.792 121.573ZM80.1934 121.77C80.1934 126.295 77.6624 130.033 74.5985 130.033C71.5347 130.033 69.0036 126.295 69.0036 121.77C69.0036 117.245 71.5347 113.507 74.5985 113.507C77.6624 113.507 80.1934 117.245 80.1934 121.77Z"/>
<path fill-rule="evenodd" clip-rule="evenodd" d="M45.958 121.573C45.958 115.671 42.761 110.949 38.7646 110.949C34.7683 110.949 31.5712 115.868 31.5712 121.573C31.5712 127.475 34.7683 132.197 38.7646 132.197C42.761 132.197 45.958 127.475 45.958 121.573ZM44.3595 121.77C44.3595 126.295 41.8285 130.033 38.7646 130.033C35.7007 130.033 33.1697 126.295 33.1697 121.77C33.1697 117.245 35.7007 113.507 38.7646 113.507C41.8285 113.507 44.3595 117.245 44.3595 121.77Z"/>
</mask>
<path d="M18.0528 146.242L14.4354 146.793C14.3331 146.283 14.1541 145.803 13.8983 145.355C13.6499 144.906 13.3137 144.544 12.8899 144.268C12.466 143.993 11.9472 143.855 11.3333 143.855C10.5075 143.855 9.81331 144.105 9.25061 144.605C8.69522 145.105 8.42118 145.752 8.42849 146.548C8.42118 147.231 8.60022 147.787 8.96561 148.216C9.3383 148.644 9.95215 148.996 10.8072 149.271L13.6791 150.128C15.2722 150.608 16.456 151.367 17.2307 152.408C18.0126 153.448 18.4072 154.81 18.4145 156.493C18.4072 157.972 18.0966 159.277 17.4828 160.409C16.8762 161.531 16.0322 162.409 14.9506 163.041C13.8691 163.673 12.6268 163.99 11.2237 163.99C9.16292 163.99 7.50406 163.388 6.24713 162.184C4.9902 160.97 4.24116 159.282 4 157.12L7.86945 156.6C8.04483 157.661 8.41753 158.461 8.98753 159.002C9.55753 159.542 10.2993 159.813 11.2127 159.813C12.1554 159.813 12.9118 159.542 13.4818 159.002C14.0591 158.461 14.3478 157.793 14.3478 156.998C14.3478 156.324 14.1614 155.769 13.7887 155.33C13.4233 154.891 12.8533 154.555 12.0787 154.32L9.20676 153.479C7.59175 153.01 6.39694 152.219 5.62232 151.107C4.8477 149.985 4.46404 148.568 4.47135 146.854C4.46404 145.406 4.74539 144.151 5.31539 143.09C5.8927 142.019 6.6929 141.193 7.71598 140.612C8.74638 140.02 9.93388 139.724 11.2785 139.724C13.2516 139.724 14.8045 140.311 15.9372 141.484C17.0772 142.657 17.7824 144.243 18.0528 146.242Z" fill="#FF9F00"/>
<path d="M24.1113 149.761V163.531H20.1432V132.197H24.0236V144.024H24.2209C24.6155 142.698 25.2257 141.652 26.0515 140.887C26.8845 140.112 27.9442 139.724 29.2303 139.724C30.3996 139.724 31.419 140.066 32.2886 140.75C33.1582 141.433 33.8305 142.432 34.3056 143.748C34.7879 145.064 35.029 146.67 35.029 148.568V163.531H31.0609V149.424C31.0609 147.843 30.7686 146.614 30.184 145.737C29.6067 144.85 28.7955 144.406 27.7505 144.406C27.049 144.406 26.4205 144.62 25.8651 145.049C25.317 145.467 24.8859 146.074 24.5716 146.869C24.2647 147.665 24.1113 148.629 24.1113 149.761Z" fill="#FF9F00"/>
<path d="M44.8747 163.99C43.2305 163.99 41.8055 163.485 40.5997 162.475C39.3939 161.465 38.4585 160.052 37.7935 158.237C37.1358 156.421 36.807 154.3 36.807 151.872C36.807 149.445 37.1358 147.318 37.7935 145.492C38.4585 143.667 39.3939 142.249 40.5997 141.239C41.8055 140.229 43.2305 139.724 44.8747 139.724C46.519 139.724 47.944 140.229 49.1498 141.239C50.3555 142.249 51.2873 143.667 51.945 145.492C52.61 147.318 52.9425 149.445 52.9425 151.872C52.9425 154.3 52.61 156.421 51.945 158.237C51.2873 160.052 50.3555 161.465 49.1498 162.475C47.944 163.485 46.519 163.99 44.8747 163.99ZM44.8967 159.553C45.7882 159.553 46.5336 159.211 47.1328 158.528C47.7321 157.834 48.1778 156.906 48.4701 155.743C48.7698 154.58 48.9196 153.285 48.9196 151.857C48.9196 150.419 48.7698 149.118 48.4701 147.956C48.1778 146.783 47.7321 145.849 47.1328 145.156C46.5336 144.462 45.7882 144.115 44.8967 144.115C43.9832 144.115 43.2232 144.462 42.6166 145.156C42.0174 145.849 41.568 146.783 41.2684 147.956C40.9761 149.118 40.8299 150.419 40.8299 151.857C40.8299 153.285 40.9761 154.58 41.2684 155.743C41.568 156.906 42.0174 157.834 42.6166 158.528C43.2232 159.211 43.9832 159.553 44.8967 159.553Z" fill="#FF9F00"/>
<path d="M54.767 172.343V140.03H58.6694V143.917H58.8996C59.1042 143.345 59.3928 142.738 59.7655 142.096C60.1382 141.443 60.6425 140.887 61.2782 140.428C61.914 139.959 62.7252 139.724 63.7117 139.724C65.0125 139.724 66.1854 140.189 67.2304 141.117C68.2827 142.035 69.1158 143.396 69.7296 145.202C70.3508 146.997 70.6614 149.2 70.6614 151.811C70.6614 154.392 70.3581 156.585 69.7516 158.39C69.145 160.195 68.3192 161.572 67.2742 162.521C66.2292 163.469 65.0454 163.944 63.7227 163.944C62.7581 163.944 61.9578 163.719 61.3221 163.27C60.6863 162.822 60.1748 162.281 59.7875 161.649C59.4075 161.006 59.1115 160.399 58.8996 159.828H58.7351V172.343H54.767ZM58.6584 151.78C58.6584 153.3 58.8119 154.631 59.1188 155.774C59.433 156.916 59.8825 157.809 60.4671 158.451C61.059 159.083 61.7752 159.4 62.6155 159.4C63.4925 159.4 64.2269 159.073 64.8188 158.42C65.4108 157.758 65.8565 156.855 66.1561 155.712C66.4631 154.56 66.6165 153.249 66.6165 151.78C66.6165 150.322 66.4667 149.027 66.1671 147.894C65.8675 146.762 65.4217 145.875 64.8298 145.232C64.2379 144.59 63.4998 144.268 62.6155 144.268C61.7678 144.268 61.048 144.58 60.4561 145.202C59.8642 145.824 59.4148 146.696 59.1078 147.818C58.8082 148.94 58.6584 150.261 58.6584 151.78Z" fill="#FF9F00"/>
<path d="M72.5161 172.343V140.03H76.4184V143.917H76.6486C76.8532 143.345 77.1419 142.738 77.5146 142.096C77.8873 141.443 78.3915 140.887 79.0273 140.428C79.663 139.959 80.4742 139.724 81.4607 139.724C82.7615 139.724 83.9344 140.189 84.9794 141.117C86.0317 142.035 86.8648 143.396 87.4787 145.202C88.0998 146.997 88.4104 149.2 88.4104 151.811C88.4104 154.392 88.1071 156.585 87.5006 158.39C86.894 160.195 86.0683 161.572 85.0233 162.521C83.9783 163.469 82.7944 163.944 81.4717 163.944C80.5071 163.944 79.7069 163.719 79.0711 163.27C78.4353 162.822 77.9238 162.281 77.5365 161.649C77.1565 161.006 76.8605 160.399 76.6486 159.828H76.4842V172.343H72.5161ZM76.4074 151.78C76.4074 153.3 76.5609 154.631 76.8678 155.774C77.1821 156.916 77.6315 157.809 78.2161 158.451C78.808 159.083 79.5242 159.4 80.3646 159.4C81.2415 159.4 81.9759 159.073 82.5679 158.42C83.1598 157.758 83.6056 156.855 83.9052 155.712C84.2121 154.56 84.3656 153.249 84.3656 151.78C84.3656 150.322 84.2158 149.027 83.9161 147.894C83.6165 146.762 83.1707 145.875 82.5788 145.232C81.9869 144.59 81.2488 144.268 80.3646 144.268C79.5169 144.268 78.7971 144.58 78.2051 145.202C77.6132 145.824 77.1638 146.696 76.8569 147.818C76.5572 148.94 76.4074 150.261 76.4074 151.78Z" fill="#FF9F00"/>
<path d="M95.1101 164.005C94.0432 164.005 93.0822 163.74 92.2272 163.209C91.3795 162.669 90.7072 161.873 90.2103 160.823C89.7207 159.772 89.4759 158.477 89.4759 156.936C89.4759 155.61 89.6513 154.514 90.002 153.647C90.3528 152.78 90.8315 152.086 91.438 151.566C92.0445 151.046 92.7278 150.653 93.4878 150.388C94.2551 150.113 95.048 149.914 95.8665 149.792C96.853 149.649 97.6532 149.521 98.2671 149.409C98.8809 149.287 99.3267 149.103 99.6044 148.858C99.8894 148.603 100.032 148.211 100.032 147.68V147.588C100.032 146.436 99.7871 145.543 99.2975 144.911C98.8078 144.279 98.1027 143.962 97.1819 143.962C96.2099 143.962 95.439 144.258 94.869 144.85C94.3063 145.441 93.9263 146.14 93.729 146.946L90.024 146.211C90.3163 144.783 90.7986 143.59 91.4709 142.631C92.1432 141.662 92.9653 140.938 93.9372 140.459C94.9092 139.969 95.9834 139.724 97.16 139.724C97.9711 139.724 98.7786 139.857 99.5825 140.122C100.386 140.387 101.121 140.826 101.786 141.438C102.451 142.04 102.984 142.861 103.386 143.901C103.795 144.942 104 146.242 104 147.803V163.531H100.185V160.302H100.054C99.8127 160.955 99.4729 161.567 99.0344 162.138C98.6032 162.699 98.0588 163.153 97.4011 163.5C96.7507 163.837 95.9871 164.005 95.1101 164.005ZM96.1405 159.935C96.9371 159.935 97.6276 159.716 98.2123 159.277C98.7969 158.828 99.2463 158.237 99.5605 157.503C99.8821 156.768 100.043 155.967 100.043 155.1V152.331C99.9186 152.474 99.7067 152.607 99.4071 152.729C99.1148 152.851 98.7859 152.959 98.4205 153.05C98.0552 153.142 97.6934 153.224 97.3353 153.295C96.9773 153.367 96.6667 153.428 96.4036 153.479C95.8117 153.591 95.2819 153.775 94.8142 154.03C94.3465 154.285 93.9774 154.642 93.707 155.1C93.4367 155.549 93.3015 156.131 93.3015 156.845C93.3015 157.865 93.5682 158.635 94.1017 159.155C94.6351 159.675 95.3148 159.935 96.1405 159.935Z" fill="#FF9F00"/>
<path fill-rule="evenodd" clip-rule="evenodd" d="M73.1085 25.6986L85.4014 23.2392C84.0103 17.0906 81.1525 12.1888 76.8281 8.53375C72.5037 4.84458 66.5765 3 59.0465 3C53.8148 3 49.1729 3.99061 45.1206 5.97183C41.0683 7.91889 37.8931 10.6345 35.5947 14.1187C33.2964 17.603 32.1473 21.6679 32.1473 26.3135C32.1473 31.9156 33.6896 36.5441 36.7741 40.1991C39.1065 42.9359 42.3883 45.1173 46.6196 46.7433L27.708 47.6001C27.5748 45.6327 27.042 41.698 24.9106 38.3534C22.646 34.8122 19.1825 33.0415 14.6533 32.8448C14.2536 32.8448 13.854 33.2383 13.854 34.0252C13.854 34.6154 14.2536 35.2056 14.6533 35.2056C18.7828 35.4024 21.8467 36.9763 23.8449 40.1241C26.2427 44.0588 26.2427 48.9772 26.2427 48.9772L28.5073 94.4235V104.851C28.5073 105.441 28.9069 106.031 29.3066 106.031H84.0566C84.4562 106.031 84.8558 105.441 84.8558 104.851C84.8558 104.26 84.4562 103.67 84.0566 103.67H30.2391V95.604L84.9891 85.1769C85.2555 85.1769 85.5219 84.7834 85.6551 84.3899L93.781 46.2229C93.781 45.8294 93.781 45.436 93.5146 45.0425C93.3814 44.8458 93.115 44.649 92.8485 44.649L80.8514 45.1925C77.7383 42.3133 73.358 40.1364 67.7105 38.662L56.6424 35.7926C52.8018 34.7679 50.0196 33.4527 48.2959 31.8473C46.5722 30.2418 45.7103 28.1239 45.7103 25.4937C45.7103 22.4535 46.9955 19.977 49.566 18.0641C52.1365 16.117 55.342 15.1435 59.1826 15.1435C61.995 15.1435 64.3386 15.6559 66.2136 16.6807C68.0885 17.7054 69.5703 19.0206 70.659 20.626C71.7779 22.2315 72.5944 23.9224 73.1085 25.6986ZM53.5706 48.7796L62.9929 51.1129C66.3194 51.9669 68.784 53.2308 70.3868 54.9046C72.0198 56.5784 72.8363 58.645 72.8363 61.1044C72.8363 64.1446 71.5057 66.7236 68.8445 68.8414C66.1833 70.9251 62.63 71.967 58.1846 71.967C54.1021 71.967 50.7908 70.9934 48.2505 69.0464C45.7103 67.0652 44.0319 64.1446 43.2154 60.2846L30.106 62.5391C31.2249 69.5075 34.249 74.8876 39.1783 78.6792C44.1075 82.4367 50.4732 84.3155 58.2754 84.3155C63.9002 84.3155 68.8445 83.2736 73.1085 81.1899C77.4027 79.1062 80.7443 76.2368 83.1333 72.5818C85.5526 68.8927 86.7622 64.6911 86.7622 59.9772C86.7622 54.9411 85.4757 50.7573 82.9028 47.4259L91.9161 47.0099L84.1898 82.816L30.1058 93.0464L27.9745 49.9609L53.5706 48.7796Z" fill="#FF9F00"/>
<path fill-rule="evenodd" clip-rule="evenodd" d="M81.792 121.573C81.792 115.671 78.5949 110.949 74.5985 110.949C70.6022 110.949 67.4051 115.868 67.4051 121.573C67.4051 127.475 70.6022 132.197 74.5985 132.197C78.5949 132.197 81.792 127.475 81.792 121.573ZM80.1934 121.77C80.1934 126.295 77.6624 130.033 74.5985 130.033C71.5347 130.033 69.0036 126.295 69.0036 121.77C69.0036 117.245 71.5347 113.507 74.5985 113.507C77.6624 113.507 80.1934 117.245 80.1934 121.77Z" fill="#FF9F00"/>
<path fill-rule="evenodd" clip-rule="evenodd" d="M45.958 121.573C45.958 115.671 42.761 110.949 38.7646 110.949C34.7683 110.949 31.5712 115.868 31.5712 121.573C31.5712 127.475 34.7683 132.197 38.7646 132.197C42.761 132.197 45.958 127.475 45.958 121.573ZM44.3595 121.77C44.3595 126.295 41.8285 130.033 38.7646 130.033C35.7007 130.033 33.1697 126.295 33.1697 121.77C33.1697 117.245 35.7007 113.507 38.7646 113.507C41.8285 113.507 44.3595 117.245 44.3595 121.77Z" fill="#FF9F00"/>
<path d="M18.0528 146.242L14.4354 146.793C14.3331 146.283 14.1541 145.803 13.8983 145.355C13.6499 144.906 13.3137 144.544 12.8899 144.268C12.466 143.993 11.9472 143.855 11.3333 143.855C10.5075 143.855 9.81331 144.105 9.25061 144.605C8.69522 145.105 8.42118 145.752 8.42849 146.548C8.42118 147.231 8.60022 147.787 8.96561 148.216C9.3383 148.644 9.95215 148.996 10.8072 149.271L13.6791 150.128C15.2722 150.608 16.456 151.367 17.2307 152.408C18.0126 153.448 18.4072 154.81 18.4145 156.493C18.4072 157.972 18.0966 159.277 17.4828 160.409C16.8762 161.531 16.0322 162.409 14.9506 163.041C13.8691 163.673 12.6268 163.99 11.2237 163.99C9.16292 163.99 7.50406 163.388 6.24713 162.184C4.9902 160.97 4.24116 159.282 4 157.12L7.86945 156.6C8.04483 157.661 8.41753 158.461 8.98753 159.002C9.55753 159.542 10.2993 159.813 11.2127 159.813C12.1554 159.813 12.9118 159.542 13.4818 159.002C14.0591 158.461 14.3478 157.793 14.3478 156.998C14.3478 156.324 14.1614 155.769 13.7887 155.33C13.4233 154.891 12.8533 154.555 12.0787 154.32L9.20676 153.479C7.59175 153.01 6.39694 152.219 5.62232 151.107C4.8477 149.985 4.46404 148.568 4.47135 146.854C4.46404 145.406 4.74539 144.151 5.31539 143.09C5.8927 142.019 6.6929 141.193 7.71598 140.612C8.74638 140.02 9.93388 139.724 11.2785 139.724C13.2516 139.724 14.8045 140.311 15.9372 141.484C17.0772 142.657 17.7824 144.243 18.0528 146.242Z" stroke="black" stroke-width="6" mask="url(#path-1-outside-1_310_50)"/>
<path d="M24.1113 149.761V163.531H20.1432V132.197H24.0236V144.024H24.2209C24.6155 142.698 25.2257 141.652 26.0515 140.887C26.8845 140.112 27.9442 139.724 29.2303 139.724C30.3996 139.724 31.419 140.066 32.2886 140.75C33.1582 141.433 33.8305 142.432 34.3056 143.748C34.7879 145.064 35.029 146.67 35.029 148.568V163.531H31.0609V149.424C31.0609 147.843 30.7686 146.614 30.184 145.737C29.6067 144.85 28.7955 144.406 27.7505 144.406C27.049 144.406 26.4205 144.62 25.8651 145.049C25.317 145.467 24.8859 146.074 24.5716 146.869C24.2647 147.665 24.1113 148.629 24.1113 149.761Z" stroke="black" stroke-width="6" mask="url(#path-1-outside-1_310_50)"/>
<path d="M44.8747 163.99C43.2305 163.99 41.8055 163.485 40.5997 162.475C39.3939 161.465 38.4585 160.052 37.7935 158.237C37.1358 156.421 36.807 154.3 36.807 151.872C36.807 149.445 37.1358 147.318 37.7935 145.492C38.4585 143.667 39.3939 142.249 40.5997 141.239C41.8055 140.229 43.2305 139.724 44.8747 139.724C46.519 139.724 47.944 140.229 49.1498 141.239C50.3555 142.249 51.2873 143.667 51.945 145.492C52.61 147.318 52.9425 149.445 52.9425 151.872C52.9425 154.3 52.61 156.421 51.945 158.237C51.2873 160.052 50.3555 161.465 49.1498 162.475C47.944 163.485 46.519 163.99 44.8747 163.99ZM44.8967 159.553C45.7882 159.553 46.5336 159.211 47.1328 158.528C47.7321 157.834 48.1778 156.906 48.4701 155.743C48.7698 154.58 48.9196 153.285 48.9196 151.857C48.9196 150.419 48.7698 149.118 48.4701 147.956C48.1778 146.783 47.7321 145.849 47.1328 145.156C46.5336 144.462 45.7882 144.115 44.8967 144.115C43.9832 144.115 43.2232 144.462 42.6166 145.156C42.0174 145.849 41.568 146.783 41.2684 147.956C40.9761 149.118 40.8299 150.419 40.8299 151.857C40.8299 153.285 40.9761 154.58 41.2684 155.743C41.568 156.906 42.0174 157.834 42.6166 158.528C43.2232 159.211 43.9832 159.553 44.8967 159.553Z" stroke="black" stroke-width="6" mask="url(#path-1-outside-1_310_50)"/>
<path d="M54.767 172.343V140.03H58.6694V143.917H58.8996C59.1042 143.345 59.3928 142.738 59.7655 142.096C60.1382 141.443 60.6425 140.887 61.2782 140.428C61.914 139.959 62.7252 139.724 63.7117 139.724C65.0125 139.724 66.1854 140.189 67.2304 141.117C68.2827 142.035 69.1158 143.396 69.7296 145.202C70.3508 146.997 70.6614 149.2 70.6614 151.811C70.6614 154.392 70.3581 156.585 69.7516 158.39C69.145 160.195 68.3192 161.572 67.2742 162.521C66.2292 163.469 65.0454 163.944 63.7227 163.944C62.7581 163.944 61.9578 163.719 61.3221 163.27C60.6863 162.822 60.1748 162.281 59.7875 161.649C59.4075 161.006 59.1115 160.399 58.8996 159.828H58.7351V172.343H54.767ZM58.6584 151.78C58.6584 153.3 58.8119 154.631 59.1188 155.774C59.433 156.916 59.8825 157.809 60.4671 158.451C61.059 159.083 61.7752 159.4 62.6155 159.4C63.4925 159.4 64.2269 159.073 64.8188 158.42C65.4108 157.758 65.8565 156.855 66.1561 155.712C66.4631 154.56 66.6165 153.249 66.6165 151.78C66.6165 150.322 66.4667 149.027 66.1671 147.894C65.8675 146.762 65.4217 145.875 64.8298 145.232C64.2379 144.59 63.4998 144.268 62.6155 144.268C61.7678 144.268 61.048 144.58 60.4561 145.202C59.8642 145.824 59.4148 146.696 59.1078 147.818C58.8082 148.94 58.6584 150.261 58.6584 151.78Z" stroke="black" stroke-width="6" mask="url(#path-1-outside-1_310_50)"/>
<path d="M72.5161 172.343V140.03H76.4184V143.917H76.6486C76.8532 143.345 77.1419 142.738 77.5146 142.096C77.8873 141.443 78.3915 140.887 79.0273 140.428C79.663 139.959 80.4742 139.724 81.4607 139.724C82.7615 139.724 83.9344 140.189 84.9794 141.117C86.0317 142.035 86.8648 143.396 87.4787 145.202C88.0998 146.997 88.4104 149.2 88.4104 151.811C88.4104 154.392 88.1071 156.585 87.5006 158.39C86.894 160.195 86.0683 161.572 85.0233 162.521C83.9783 163.469 82.7944 163.944 81.4717 163.944C80.5071 163.944 79.7069 163.719 79.0711 163.27C78.4353 162.822 77.9238 162.281 77.5365 161.649C77.1565 161.006 76.8605 160.399 76.6486 159.828H76.4842V172.343H72.5161ZM76.4074 151.78C76.4074 153.3 76.5609 154.631 76.8678 155.774C77.1821 156.916 77.6315 157.809 78.2161 158.451C78.808 159.083 79.5242 159.4 80.3646 159.4C81.2415 159.4 81.9759 159.073 82.5679 158.42C83.1598 157.758 83.6056 156.855 83.9052 155.712C84.2121 154.56 84.3656 153.249 84.3656 151.78C84.3656 150.322 84.2158 149.027 83.9161 147.894C83.6165 146.762 83.1707 145.875 82.5788 145.232C81.9869 144.59 81.2488 144.268 80.3646 144.268C79.5169 144.268 78.7971 144.58 78.2051 145.202C77.6132 145.824 77.1638 146.696 76.8569 147.818C76.5572 148.94 76.4074 150.261 76.4074 151.78Z" stroke="black" stroke-width="6" mask="url(#path-1-outside-1_310_50)"/>
<path d="M95.1101 164.005C94.0432 164.005 93.0822 163.74 92.2272 163.209C91.3795 162.669 90.7072 161.873 90.2103 160.823C89.7207 159.772 89.4759 158.477 89.4759 156.936C89.4759 155.61 89.6513 154.514 90.002 153.647C90.3528 152.78 90.8315 152.086 91.438 151.566C92.0445 151.046 92.7278 150.653 93.4878 150.388C94.2551 150.113 95.048 149.914 95.8665 149.792C96.853 149.649 97.6532 149.521 98.2671 149.409C98.8809 149.287 99.3267 149.103 99.6044 148.858C99.8894 148.603 100.032 148.211 100.032 147.68V147.588C100.032 146.436 99.7871 145.543 99.2975 144.911C98.8078 144.279 98.1027 143.962 97.1819 143.962C96.2099 143.962 95.439 144.258 94.869 144.85C94.3063 145.441 93.9263 146.14 93.729 146.946L90.024 146.211C90.3163 144.783 90.7986 143.59 91.4709 142.631C92.1432 141.662 92.9653 140.938 93.9372 140.459C94.9092 139.969 95.9834 139.724 97.16 139.724C97.9711 139.724 98.7786 139.857 99.5825 140.122C100.386 140.387 101.121 140.826 101.786 141.438C102.451 142.04 102.984 142.861 103.386 143.901C103.795 144.942 104 146.242 104 147.803V163.531H100.185V160.302H100.054C99.8127 160.955 99.4729 161.567 99.0344 162.138C98.6032 162.699 98.0588 163.153 97.4011 163.5C96.7507 163.837 95.9871 164.005 95.1101 164.005ZM96.1405 159.935C96.9371 159.935 97.6276 159.716 98.2123 159.277C98.7969 158.828 99.2463 158.237 99.5605 157.503C99.8821 156.768 100.043 155.967 100.043 155.1V152.331C99.9186 152.474 99.7067 152.607 99.4071 152.729C99.1148 152.851 98.7859 152.959 98.4205 153.05C98.0552 153.142 97.6934 153.224 97.3353 153.295C96.9773 153.367 96.6667 153.428 96.4036 153.479C95.8117 153.591 95.2819 153.775 94.8142 154.03C94.3465 154.285 93.9774 154.642 93.707 155.1C93.4367 155.549 93.3015 156.131 93.3015 156.845C93.3015 157.865 93.5682 158.635 94.1017 159.155C94.6351 159.675 95.3148 159.935 96.1405 159.935Z" stroke="black" stroke-width="6" mask="url(#path-1-outside-1_310_50)"/>
<path fill-rule="evenodd" clip-rule="evenodd" d="M73.1085 25.6986L85.4014 23.2392C84.0103 17.0906 81.1525 12.1888 76.8281 8.53375C72.5037 4.84458 66.5765 3 59.0465 3C53.8148 3 49.1729 3.99061 45.1206 5.97183C41.0683 7.91889 37.8931 10.6345 35.5947 14.1187C33.2964 17.603 32.1473 21.6679 32.1473 26.3135C32.1473 31.9156 33.6896 36.5441 36.7741 40.1991C39.1065 42.9359 42.3883 45.1173 46.6196 46.7433L27.708 47.6001C27.5748 45.6327 27.042 41.698 24.9106 38.3534C22.646 34.8122 19.1825 33.0415 14.6533 32.8448C14.2536 32.8448 13.854 33.2383 13.854 34.0252C13.854 34.6154 14.2536 35.2056 14.6533 35.2056C18.7828 35.4024 21.8467 36.9763 23.8449 40.1241C26.2427 44.0588 26.2427 48.9772 26.2427 48.9772L28.5073 94.4235V104.851C28.5073 105.441 28.9069 106.031 29.3066 106.031H84.0566C84.4562 106.031 84.8558 105.441 84.8558 104.851C84.8558 104.26 84.4562 103.67 84.0566 103.67H30.2391V95.604L84.9891 85.1769C85.2555 85.1769 85.5219 84.7834 85.6551 84.3899L93.781 46.2229C93.781 45.8294 93.781 45.436 93.5146 45.0425C93.3814 44.8458 93.115 44.649 92.8485 44.649L80.8514 45.1925C77.7383 42.3133 73.358 40.1364 67.7105 38.662L56.6424 35.7926C52.8018 34.7679 50.0196 33.4527 48.2959 31.8473C46.5722 30.2418 45.7103 28.1239 45.7103 25.4937C45.7103 22.4535 46.9955 19.977 49.566 18.0641C52.1365 16.117 55.342 15.1435 59.1826 15.1435C61.995 15.1435 64.3386 15.6559 66.2136 16.6807C68.0885 17.7054 69.5703 19.0206 70.659 20.626C71.7779 22.2315 72.5944 23.9224 73.1085 25.6986ZM53.5706 48.7796L62.9929 51.1129C66.3194 51.9669 68.784 53.2308 70.3868 54.9046C72.0198 56.5784 72.8363 58.645 72.8363 61.1044C72.8363 64.1446 71.5057 66.7236 68.8445 68.8414C66.1833 70.9251 62.63 71.967 58.1846 71.967C54.1021 71.967 50.7908 70.9934 48.2505 69.0464C45.7103 67.0652 44.0319 64.1446 43.2154 60.2846L30.106 62.5391C31.2249 69.5075 34.249 74.8876 39.1783 78.6792C44.1075 82.4367 50.4732 84.3155 58.2754 84.3155C63.9002 84.3155 68.8445 83.2736 73.1085 81.1899C77.4027 79.1062 80.7443 76.2368 83.1333 72.5818C85.5526 68.8927 86.7622 64.6911 86.7622 59.9772C86.7622 54.9411 85.4757 50.7573 82.9028 47.4259L91.9161 47.0099L84.1898 82.816L30.1058 93.0464L27.9745 49.9609L53.5706 48.7796Z" stroke="black" stroke-width="6" mask="url(#path-1-outside-1_310_50)"/>
<path fill-rule="evenodd" clip-rule="evenodd" d="M81.792 121.573C81.792 115.671 78.5949 110.949 74.5985 110.949C70.6022 110.949 67.4051 115.868 67.4051 121.573C67.4051 127.475 70.6022 132.197 74.5985 132.197C78.5949 132.197 81.792 127.475 81.792 121.573ZM80.1934 121.77C80.1934 126.295 77.6624 130.033 74.5985 130.033C71.5347 130.033 69.0036 126.295 69.0036 121.77C69.0036 117.245 71.5347 113.507 74.5985 113.507C77.6624 113.507 80.1934 117.245 80.1934 121.77Z" stroke="black" stroke-width="6" mask="url(#path-1-outside-1_310_50)"/>
<path fill-rule="evenodd" clip-rule="evenodd" d="M45.958 121.573C45.958 115.671 42.761 110.949 38.7646 110.949C34.7683 110.949 31.5712 115.868 31.5712 121.573C31.5712 127.475 34.7683 132.197 38.7646 132.197C42.761 132.197 45.958 127.475 45.958 121.573ZM44.3595 121.77C44.3595 126.295 41.8285 130.033 38.7646 130.033C35.7007 130.033 33.1697 126.295 33.1697 121.77C33.1697 117.245 35.7007 113.507 38.7646 113.507C41.8285 113.507 44.3595 117.245 44.3595 121.77Z" stroke="black" stroke-width="6" mask="url(#path-1-outside-1_310_50)"/>
</svg>
