<svg width="35" height="50" viewBox="0 0 280 470" fill="none" xmlns="http://www.w3.org/2000/svg">
<mask id="path-1-outside-1_313_54" maskUnits="userSpaceOnUse" x="0" y="0" width="280" height="470" fill="black">
<rect fill="white" width="280" height="470"/>
<path d="M42.3641 395.483L32.4888 396.992C32.2095 395.595 31.7207 394.281 31.0224 393.052C30.3441 391.822 29.4264 390.83 28.2693 390.075C27.1122 389.321 25.6958 388.944 24.0199 388.944C21.7656 388.944 19.8703 389.628 18.3342 390.998C16.818 392.367 16.0698 394.142 16.0898 396.322C16.0698 398.194 16.5586 399.717 17.5561 400.891C18.5736 402.065 20.2494 403.029 22.5835 403.784L30.4239 406.131C34.7731 407.445 38.005 409.527 40.1197 412.377C42.2544 415.228 43.3317 418.959 43.3516 423.57C43.3317 427.622 42.4838 431.2 40.808 434.302C39.1521 437.376 36.8479 439.779 33.8953 441.512C30.9426 443.245 27.5511 444.111 23.7207 444.111C18.0948 444.111 13.5661 442.462 10.1347 439.165C6.70324 435.839 4.65835 431.214 4 425.289L14.5636 423.864C15.0424 426.77 16.0599 428.964 17.616 430.445C19.1721 431.926 21.197 432.667 23.6908 432.667C26.2643 432.667 28.3292 431.926 29.8853 430.445C31.4613 428.964 32.2494 427.133 32.2494 424.954C32.2494 423.109 31.7406 421.586 30.7232 420.384C29.7257 419.182 28.1696 418.26 26.0549 417.617L18.2145 415.312C13.8055 414.026 10.5436 411.86 8.42893 408.814C6.31421 405.74 5.26683 401.855 5.28678 397.16C5.26683 393.192 6.03491 389.754 7.59102 386.848C9.16708 383.913 11.3516 381.649 14.1446 380.056C16.9576 378.435 20.1995 377.625 23.8703 377.625C29.2569 377.625 33.4963 379.232 36.5885 382.446C39.7007 385.66 41.6259 390.006 42.3641 395.483Z"/>
<path d="M58.9037 405.125V442.854H48.0708V357H58.6643V389.405H59.203C60.2803 385.772 61.9461 382.907 64.2005 380.811C66.4748 378.687 69.3676 377.625 72.8788 377.625C76.0708 377.625 78.8539 378.561 81.2279 380.434C83.602 382.306 85.4374 385.045 86.7342 388.65C88.0509 392.255 88.7092 396.657 88.7092 401.855V442.854H77.8763V404.203C77.8763 399.871 77.0783 396.503 75.4823 394.1C73.9062 391.668 71.6918 390.453 68.8389 390.453C66.9237 390.453 65.208 391.04 63.6918 392.213C62.1955 393.359 61.0184 395.022 60.1606 397.202C59.3227 399.382 58.9037 402.023 58.9037 405.125Z"/>
<path d="M115.588 444.111C111.099 444.111 107.209 442.728 103.917 439.961C100.625 437.194 98.0718 433.324 96.2564 428.349C94.4608 423.374 93.5631 417.561 93.5631 410.91C93.5631 404.259 94.4608 398.432 96.2564 393.429C98.0718 388.427 100.625 384.542 103.917 381.775C107.209 379.008 111.099 377.625 115.588 377.625C120.077 377.625 123.967 379.008 127.259 381.775C130.551 384.542 133.094 388.427 134.89 393.429C136.705 398.432 137.613 404.259 137.613 410.91C137.613 417.561 136.705 423.374 134.89 428.349C133.094 433.324 130.551 437.194 127.259 439.961C123.967 442.728 120.077 444.111 115.588 444.111ZM115.648 431.954C118.082 431.954 120.117 431.018 121.753 429.146C123.389 427.245 124.605 424.702 125.403 421.516C126.221 418.33 126.63 414.781 126.63 410.868C126.63 406.928 126.221 403.364 125.403 400.178C124.605 396.964 123.389 394.407 121.753 392.507C120.117 390.606 118.082 389.656 115.648 389.656C113.154 389.656 111.079 390.606 109.423 392.507C107.788 394.407 106.561 396.964 105.743 400.178C104.945 403.364 104.546 406.928 104.546 410.868C104.546 414.781 104.945 418.33 105.743 421.516C106.561 424.702 107.788 427.245 109.423 429.146C111.079 431.018 113.154 431.954 115.648 431.954Z"/>
<path d="M142.594 467V378.463H153.247V389.111H153.876C154.434 387.546 155.222 385.883 156.24 384.123C157.257 382.334 158.634 380.811 160.37 379.553C162.105 378.268 164.32 377.625 167.013 377.625C170.564 377.625 173.766 378.897 176.619 381.44C179.492 383.955 181.766 387.686 183.442 392.633C185.138 397.551 185.986 403.588 185.986 410.742C185.986 417.813 185.158 423.822 183.502 428.768C181.846 433.715 179.592 437.488 176.739 440.087C173.886 442.686 170.654 443.986 167.043 443.986C164.409 443.986 162.225 443.371 160.489 442.141C158.754 440.911 157.357 439.43 156.3 437.697C155.262 435.937 154.454 434.274 153.876 432.709H153.427V467H142.594ZM153.217 410.659C153.217 414.823 153.636 418.47 154.474 421.6C155.332 424.73 156.559 427.175 158.155 428.936C159.771 430.669 161.726 431.535 164.02 431.535C166.414 431.535 168.419 430.641 170.035 428.852C171.651 427.036 172.868 424.562 173.686 421.432C174.524 418.274 174.943 414.683 174.943 410.659C174.943 406.662 174.534 403.113 173.716 400.011C172.898 396.909 171.681 394.477 170.065 392.716C168.449 390.956 166.434 390.075 164.02 390.075C161.706 390.075 159.741 390.928 158.125 392.633C156.509 394.337 155.282 396.727 154.444 399.801C153.626 402.875 153.217 406.494 153.217 410.659Z"/>
<path d="M191.049 467V378.463H201.702V389.111H202.331C202.889 387.546 203.677 385.883 204.695 384.123C205.712 382.334 207.089 380.811 208.824 379.553C210.56 378.268 212.775 377.625 215.468 377.625C219.019 377.625 222.221 378.897 225.074 381.44C227.947 383.955 230.221 387.686 231.897 392.633C233.592 397.551 234.44 403.588 234.44 410.742C234.44 417.813 233.612 423.822 231.957 428.768C230.301 433.715 228.046 437.488 225.194 440.087C222.341 442.686 219.109 443.986 215.498 443.986C212.864 443.986 210.68 443.371 208.944 442.141C207.208 440.911 205.812 439.43 204.755 437.697C203.717 435.937 202.909 434.274 202.331 432.709H201.882V467H191.049ZM201.672 410.659C201.672 414.823 202.091 418.47 202.929 421.6C203.787 424.73 205.014 427.175 206.61 428.936C208.226 430.669 210.181 431.535 212.475 431.535C214.869 431.535 216.874 430.641 218.49 428.852C220.106 427.036 221.323 424.562 222.141 421.432C222.979 418.274 223.398 414.683 223.398 410.659C223.398 406.662 222.989 403.113 222.171 400.011C221.353 396.909 220.136 394.477 218.52 392.716C216.904 390.956 214.889 390.075 212.475 390.075C210.161 390.075 208.196 390.928 206.58 392.633C204.964 394.337 203.737 396.727 202.899 399.801C202.081 402.875 201.672 406.494 201.672 410.659Z"/>
<path d="M252.731 444.153C249.818 444.153 247.195 443.427 244.86 441.973C242.546 440.492 240.711 438.312 239.354 435.434C238.017 432.555 237.349 429.006 237.349 424.786C237.349 421.153 237.828 418.148 238.786 415.773C239.743 413.397 241.05 411.497 242.706 410.072C244.362 408.646 246.227 407.57 248.302 406.844C250.397 406.089 252.561 405.544 254.795 405.209C257.489 404.818 259.673 404.468 261.349 404.161C263.025 403.825 264.242 403.322 265 402.652C265.778 401.953 266.167 400.877 266.167 399.424V399.172C266.167 396.014 265.499 393.569 264.162 391.836C262.825 390.103 260.9 389.237 258.387 389.237C255.733 389.237 253.628 390.048 252.072 391.668C250.536 393.289 249.499 395.204 248.96 397.412L238.845 395.399C239.643 391.487 240.96 388.217 242.795 385.59C244.631 382.935 246.875 380.951 249.529 379.637C252.182 378.296 255.115 377.625 258.327 377.625C260.541 377.625 262.746 377.988 264.94 378.715C267.135 379.442 269.14 380.643 270.955 382.32C272.771 383.969 274.227 386.219 275.324 389.069C276.441 391.92 277 395.483 277 399.759V442.854H266.586V434.008H266.227C265.569 435.797 264.641 437.474 263.444 439.039C262.267 440.576 260.781 441.82 258.985 442.77C257.209 443.692 255.125 444.153 252.731 444.153ZM255.544 433.002C257.718 433.002 259.603 432.401 261.199 431.2C262.795 429.97 264.022 428.349 264.88 426.337C265.758 424.325 266.197 422.131 266.197 419.755V412.168C265.858 412.559 265.279 412.922 264.461 413.258C263.663 413.593 262.766 413.886 261.768 414.138C260.771 414.389 259.783 414.613 258.805 414.809C257.828 415.004 256.98 415.172 256.262 415.312C254.646 415.619 253.2 416.122 251.923 416.821C250.646 417.52 249.638 418.498 248.9 419.755C248.162 420.985 247.793 422.578 247.793 424.534C247.793 427.329 248.521 429.439 249.978 430.864C251.434 432.29 253.289 433.002 255.544 433.002Z"/>
<path fill-rule="evenodd" clip-rule="evenodd" d="M192.666 65.1943L226.226 58.4554C222.428 41.6082 214.626 28.1772 202.821 18.1625C191.015 8.05416 174.834 3 154.277 3C139.995 3 127.322 5.71427 116.259 11.1428C105.197 16.4778 96.528 23.9186 90.2537 33.4654C83.9793 43.0121 80.8421 54.15 80.8421 66.879C80.8421 82.2287 85.0525 94.9109 93.4734 104.926C99.8406 112.424 108.8 118.402 120.352 122.857L68.7229 125.204C68.3593 119.814 66.9046 109.032 61.0859 99.8684C54.9036 90.1653 45.4482 85.3138 33.0835 84.7747C31.9925 84.7747 30.9015 85.8529 30.9015 88.0091C30.9015 89.6263 31.9925 91.2435 33.0835 91.2435C44.3572 91.7825 52.7215 96.095 58.1766 104.72C64.7226 115.501 64.7226 128.978 64.7226 128.978L70.9049 253.5V282.071C70.9049 283.688 71.9959 285.305 73.0869 285.305H222.554C223.645 285.305 224.736 283.688 224.736 282.071C224.736 280.453 223.645 278.836 222.554 278.836H75.6326V256.735L225.1 228.165C225.827 228.165 226.555 227.087 226.918 226.008L249.102 121.431C249.102 120.353 249.102 119.275 248.375 118.196C248.011 117.657 247.284 117.118 246.557 117.118L213.804 118.608C205.305 110.718 193.347 104.754 177.93 100.714L147.714 92.8518C137.229 90.0439 129.634 86.4405 124.928 82.0415C120.222 77.6425 117.869 71.8396 117.869 64.6327C117.869 56.3027 121.378 49.517 128.395 44.2757C135.413 38.9407 144.164 36.2732 154.648 36.2732C162.326 36.2732 168.725 37.6772 173.843 40.485C178.962 43.2929 183.007 46.8963 185.979 51.2953C189.034 55.6943 191.263 60.3273 192.666 65.1943ZM139.328 128.436L165.051 134.829C174.132 137.169 180.86 140.632 185.236 145.219C189.694 149.805 191.923 155.467 191.923 162.206C191.923 170.536 188.291 177.603 181.026 183.406C173.761 189.115 164.06 191.97 151.924 191.97C140.779 191.97 131.739 189.302 124.804 183.967C117.869 178.539 113.287 170.536 111.058 159.96L75.2695 166.137C78.3241 185.231 86.5799 199.972 100.037 210.361C113.494 220.657 130.872 225.804 152.172 225.804C167.527 225.804 181.026 222.95 192.666 217.24C204.389 211.531 213.512 203.669 220.034 193.654C226.639 183.546 229.941 172.034 229.941 159.117C229.941 145.319 226.429 133.855 219.405 124.727L244.011 123.587L222.918 221.696L75.2689 249.727L69.4502 131.673L139.328 128.436Z"/>
<path fill-rule="evenodd" clip-rule="evenodd" d="M216.372 327.891C216.372 311.719 207.644 298.782 196.734 298.782C185.824 298.782 177.096 312.258 177.096 327.891C177.096 344.063 185.824 357 196.734 357C207.644 357 216.372 344.063 216.372 327.891ZM212.008 328.43C212.008 340.828 205.098 351.07 196.734 351.07C188.37 351.07 181.46 340.828 181.46 328.43C181.46 316.031 188.37 305.789 196.734 305.789C205.098 305.789 212.008 316.031 212.008 328.43Z"/>
<path fill-rule="evenodd" clip-rule="evenodd" d="M118.545 327.891C118.545 311.719 109.817 298.782 98.9074 298.782C87.9973 298.782 79.2693 312.258 79.2693 327.891C79.2693 344.063 87.9973 357 98.9074 357C109.817 357 118.545 344.063 118.545 327.891ZM114.181 328.43C114.181 340.828 107.272 351.07 98.9074 351.07C90.543 351.07 83.6333 340.828 83.6333 328.43C83.6333 316.031 90.543 305.789 98.9074 305.789C107.272 305.789 114.181 316.031 114.181 328.43Z"/>
</mask>
<path d="M42.3641 395.483L32.4888 396.992C32.2095 395.595 31.7207 394.281 31.0224 393.052C30.3441 391.822 29.4264 390.83 28.2693 390.075C27.1122 389.321 25.6958 388.944 24.0199 388.944C21.7656 388.944 19.8703 389.628 18.3342 390.998C16.818 392.367 16.0698 394.142 16.0898 396.322C16.0698 398.194 16.5586 399.717 17.5561 400.891C18.5736 402.065 20.2494 403.029 22.5835 403.784L30.4239 406.131C34.7731 407.445 38.005 409.527 40.1197 412.377C42.2544 415.228 43.3317 418.959 43.3516 423.57C43.3317 427.622 42.4838 431.2 40.808 434.302C39.1521 437.376 36.8479 439.779 33.8953 441.512C30.9426 443.245 27.5511 444.111 23.7207 444.111C18.0948 444.111 13.5661 442.462 10.1347 439.165C6.70324 435.839 4.65835 431.214 4 425.289L14.5636 423.864C15.0424 426.77 16.0599 428.964 17.616 430.445C19.1721 431.926 21.197 432.667 23.6908 432.667C26.2643 432.667 28.3292 431.926 29.8853 430.445C31.4613 428.964 32.2494 427.133 32.2494 424.954C32.2494 423.109 31.7406 421.586 30.7232 420.384C29.7257 419.182 28.1696 418.26 26.0549 417.617L18.2145 415.312C13.8055 414.026 10.5436 411.86 8.42893 408.814C6.31421 405.74 5.26683 401.855 5.28678 397.16C5.26683 393.192 6.03491 389.754 7.59102 386.848C9.16708 383.913 11.3516 381.649 14.1446 380.056C16.9576 378.435 20.1995 377.625 23.8703 377.625C29.2569 377.625 33.4963 379.232 36.5885 382.446C39.7007 385.66 41.6259 390.006 42.3641 395.483Z" fill="white"/>
<path d="M58.9037 405.125V442.854H48.0708V357H58.6643V389.405H59.203C60.2803 385.772 61.9461 382.907 64.2005 380.811C66.4748 378.687 69.3676 377.625 72.8788 377.625C76.0708 377.625 78.8539 378.561 81.2279 380.434C83.602 382.306 85.4374 385.045 86.7342 388.65C88.0509 392.255 88.7092 396.657 88.7092 401.855V442.854H77.8763V404.203C77.8763 399.871 77.0783 396.503 75.4823 394.1C73.9062 391.668 71.6918 390.453 68.8389 390.453C66.9237 390.453 65.208 391.04 63.6918 392.213C62.1955 393.359 61.0184 395.022 60.1606 397.202C59.3227 399.382 58.9037 402.023 58.9037 405.125Z" fill="white"/>
<path d="M115.588 444.111C111.099 444.111 107.209 442.728 103.917 439.961C100.625 437.194 98.0718 433.324 96.2564 428.349C94.4608 423.374 93.5631 417.561 93.5631 410.91C93.5631 404.259 94.4608 398.432 96.2564 393.429C98.0718 388.427 100.625 384.542 103.917 381.775C107.209 379.008 111.099 377.625 115.588 377.625C120.077 377.625 123.967 379.008 127.259 381.775C130.551 384.542 133.094 388.427 134.89 393.429C136.705 398.432 137.613 404.259 137.613 410.91C137.613 417.561 136.705 423.374 134.89 428.349C133.094 433.324 130.551 437.194 127.259 439.961C123.967 442.728 120.077 444.111 115.588 444.111ZM115.648 431.954C118.082 431.954 120.117 431.018 121.753 429.146C123.389 427.245 124.605 424.702 125.403 421.516C126.221 418.33 126.63 414.781 126.63 410.868C126.63 406.928 126.221 403.364 125.403 400.178C124.605 396.964 123.389 394.407 121.753 392.507C120.117 390.606 118.082 389.656 115.648 389.656C113.154 389.656 111.079 390.606 109.423 392.507C107.788 394.407 106.561 396.964 105.743 400.178C104.945 403.364 104.546 406.928 104.546 410.868C104.546 414.781 104.945 418.33 105.743 421.516C106.561 424.702 107.788 427.245 109.423 429.146C111.079 431.018 113.154 431.954 115.648 431.954Z" fill="white"/>
<path d="M142.594 467V378.463H153.247V389.111H153.876C154.434 387.546 155.222 385.883 156.24 384.123C157.257 382.334 158.634 380.811 160.37 379.553C162.105 378.268 164.32 377.625 167.013 377.625C170.564 377.625 173.766 378.897 176.619 381.44C179.492 383.955 181.766 387.686 183.442 392.633C185.138 397.551 185.986 403.588 185.986 410.742C185.986 417.813 185.158 423.822 183.502 428.768C181.846 433.715 179.592 437.488 176.739 440.087C173.886 442.686 170.654 443.986 167.043 443.986C164.409 443.986 162.225 443.371 160.489 442.141C158.754 440.911 157.357 439.43 156.3 437.697C155.262 435.937 154.454 434.274 153.876 432.709H153.427V467H142.594ZM153.217 410.659C153.217 414.823 153.636 418.47 154.474 421.6C155.332 424.73 156.559 427.175 158.155 428.936C159.771 430.669 161.726 431.535 164.02 431.535C166.414 431.535 168.419 430.641 170.035 428.852C171.651 427.036 172.868 424.562 173.686 421.432C174.524 418.274 174.943 414.683 174.943 410.659C174.943 406.662 174.534 403.113 173.716 400.011C172.898 396.909 171.681 394.477 170.065 392.716C168.449 390.956 166.434 390.075 164.02 390.075C161.706 390.075 159.741 390.928 158.125 392.633C156.509 394.337 155.282 396.727 154.444 399.801C153.626 402.875 153.217 406.494 153.217 410.659Z" fill="white"/>
<path d="M191.049 467V378.463H201.702V389.111H202.331C202.889 387.546 203.677 385.883 204.695 384.123C205.712 382.334 207.089 380.811 208.824 379.553C210.56 378.268 212.775 377.625 215.468 377.625C219.019 377.625 222.221 378.897 225.074 381.44C227.947 383.955 230.221 387.686 231.897 392.633C233.592 397.551 234.44 403.588 234.44 410.742C234.44 417.813 233.612 423.822 231.957 428.768C230.301 433.715 228.046 437.488 225.194 440.087C222.341 442.686 219.109 443.986 215.498 443.986C212.864 443.986 210.68 443.371 208.944 442.141C207.208 440.911 205.812 439.43 204.755 437.697C203.717 435.937 202.909 434.274 202.331 432.709H201.882V467H191.049ZM201.672 410.659C201.672 414.823 202.091 418.47 202.929 421.6C203.787 424.73 205.014 427.175 206.61 428.936C208.226 430.669 210.181 431.535 212.475 431.535C214.869 431.535 216.874 430.641 218.49 428.852C220.106 427.036 221.323 424.562 222.141 421.432C222.979 418.274 223.398 414.683 223.398 410.659C223.398 406.662 222.989 403.113 222.171 400.011C221.353 396.909 220.136 394.477 218.52 392.716C216.904 390.956 214.889 390.075 212.475 390.075C210.161 390.075 208.196 390.928 206.58 392.633C204.964 394.337 203.737 396.727 202.899 399.801C202.081 402.875 201.672 406.494 201.672 410.659Z" fill="white"/>
<path d="M252.731 444.153C249.818 444.153 247.195 443.427 244.86 441.973C242.546 440.492 240.711 438.312 239.354 435.434C238.017 432.555 237.349 429.006 237.349 424.786C237.349 421.153 237.828 418.148 238.786 415.773C239.743 413.397 241.05 411.497 242.706 410.072C244.362 408.646 246.227 407.57 248.302 406.844C250.397 406.089 252.561 405.544 254.795 405.209C257.489 404.818 259.673 404.468 261.349 404.161C263.025 403.825 264.242 403.322 265 402.652C265.778 401.953 266.167 400.877 266.167 399.424V399.172C266.167 396.014 265.499 393.569 264.162 391.836C262.825 390.103 260.9 389.237 258.387 389.237C255.733 389.237 253.628 390.048 252.072 391.668C250.536 393.289 249.499 395.204 248.96 397.412L238.845 395.399C239.643 391.487 240.96 388.217 242.795 385.59C244.631 382.935 246.875 380.951 249.529 379.637C252.182 378.296 255.115 377.625 258.327 377.625C260.541 377.625 262.746 377.988 264.94 378.715C267.135 379.442 269.14 380.643 270.955 382.32C272.771 383.969 274.227 386.219 275.324 389.069C276.441 391.92 277 395.483 277 399.759V442.854H266.586V434.008H266.227C265.569 435.797 264.641 437.474 263.444 439.039C262.267 440.576 260.781 441.82 258.985 442.77C257.209 443.692 255.125 444.153 252.731 444.153ZM255.544 433.002C257.718 433.002 259.603 432.401 261.199 431.2C262.795 429.97 264.022 428.349 264.88 426.337C265.758 424.325 266.197 422.131 266.197 419.755V412.168C265.858 412.559 265.279 412.922 264.461 413.258C263.663 413.593 262.766 413.886 261.768 414.138C260.771 414.389 259.783 414.613 258.805 414.809C257.828 415.004 256.98 415.172 256.262 415.312C254.646 415.619 253.2 416.122 251.923 416.821C250.646 417.52 249.638 418.498 248.9 419.755C248.162 420.985 247.793 422.578 247.793 424.534C247.793 427.329 248.521 429.439 249.978 430.864C251.434 432.29 253.289 433.002 255.544 433.002Z" fill="white"/>
<path fill-rule="evenodd" clip-rule="evenodd" d="M192.666 65.1943L226.226 58.4554C222.428 41.6082 214.626 28.1772 202.821 18.1625C191.015 8.05416 174.834 3 154.277 3C139.995 3 127.322 5.71427 116.259 11.1428C105.197 16.4778 96.528 23.9186 90.2537 33.4654C83.9793 43.0121 80.8421 54.15 80.8421 66.879C80.8421 82.2287 85.0525 94.9109 93.4734 104.926C99.8406 112.424 108.8 118.402 120.352 122.857L68.7229 125.204C68.3593 119.814 66.9046 109.032 61.0859 99.8684C54.9036 90.1653 45.4482 85.3138 33.0835 84.7747C31.9925 84.7747 30.9015 85.8529 30.9015 88.0091C30.9015 89.6263 31.9925 91.2435 33.0835 91.2435C44.3572 91.7825 52.7215 96.095 58.1766 104.72C64.7226 115.501 64.7226 128.978 64.7226 128.978L70.9049 253.5V282.071C70.9049 283.688 71.9959 285.305 73.0869 285.305H222.554C223.645 285.305 224.736 283.688 224.736 282.071C224.736 280.453 223.645 278.836 222.554 278.836H75.6326V256.735L225.1 228.165C225.827 228.165 226.555 227.087 226.918 226.008L249.102 121.431C249.102 120.353 249.102 119.275 248.375 118.196C248.011 117.657 247.284 117.118 246.557 117.118L213.804 118.608C205.305 110.718 193.347 104.754 177.93 100.714L147.714 92.8518C137.229 90.0439 129.634 86.4405 124.928 82.0415C120.222 77.6425 117.869 71.8396 117.869 64.6327C117.869 56.3027 121.378 49.517 128.395 44.2757C135.413 38.9407 144.164 36.2732 154.648 36.2732C162.326 36.2732 168.725 37.6772 173.843 40.485C178.962 43.2929 183.007 46.8963 185.979 51.2953C189.034 55.6943 191.263 60.3273 192.666 65.1943ZM139.328 128.436L165.051 134.829C174.132 137.169 180.86 140.632 185.236 145.219C189.694 149.805 191.923 155.467 191.923 162.206C191.923 170.536 188.291 177.603 181.026 183.406C173.761 189.115 164.06 191.97 151.924 191.97C140.779 191.97 131.739 189.302 124.804 183.967C117.869 178.539 113.287 170.536 111.058 159.96L75.2695 166.137C78.3241 185.231 86.5799 199.972 100.037 210.361C113.494 220.657 130.872 225.804 152.172 225.804C167.527 225.804 181.026 222.95 192.666 217.24C204.389 211.531 213.512 203.669 220.034 193.654C226.639 183.546 229.941 172.034 229.941 159.117C229.941 145.319 226.429 133.855 219.405 124.727L244.011 123.587L222.918 221.696L75.2689 249.727L69.4502 131.673L139.328 128.436Z" fill="white"/>
<path fill-rule="evenodd" clip-rule="evenodd" d="M216.372 327.891C216.372 311.719 207.644 298.782 196.734 298.782C185.824 298.782 177.096 312.258 177.096 327.891C177.096 344.063 185.824 357 196.734 357C207.644 357 216.372 344.063 216.372 327.891ZM212.008 328.43C212.008 340.828 205.098 351.07 196.734 351.07C188.37 351.07 181.46 340.828 181.46 328.43C181.46 316.031 188.37 305.789 196.734 305.789C205.098 305.789 212.008 316.031 212.008 328.43Z" fill="white"/>
<path fill-rule="evenodd" clip-rule="evenodd" d="M118.545 327.891C118.545 311.719 109.817 298.782 98.9074 298.782C87.9973 298.782 79.2693 312.258 79.2693 327.891C79.2693 344.063 87.9973 357 98.9074 357C109.817 357 118.545 344.063 118.545 327.891ZM114.181 328.43C114.181 340.828 107.272 351.07 98.9074 351.07C90.543 351.07 83.6333 340.828 83.6333 328.43C83.6333 316.031 90.543 305.789 98.9074 305.789C107.272 305.789 114.181 316.031 114.181 328.43Z" fill="white"/>
<path d="M42.3641 395.483L32.4888 396.992C32.2095 395.595 31.7207 394.281 31.0224 393.052C30.3441 391.822 29.4264 390.83 28.2693 390.075C27.1122 389.321 25.6958 388.944 24.0199 388.944C21.7656 388.944 19.8703 389.628 18.3342 390.998C16.818 392.367 16.0698 394.142 16.0898 396.322C16.0698 398.194 16.5586 399.717 17.5561 400.891C18.5736 402.065 20.2494 403.029 22.5835 403.784L30.4239 406.131C34.7731 407.445 38.005 409.527 40.1197 412.377C42.2544 415.228 43.3317 418.959 43.3516 423.57C43.3317 427.622 42.4838 431.2 40.808 434.302C39.1521 437.376 36.8479 439.779 33.8953 441.512C30.9426 443.245 27.5511 444.111 23.7207 444.111C18.0948 444.111 13.5661 442.462 10.1347 439.165C6.70324 435.839 4.65835 431.214 4 425.289L14.5636 423.864C15.0424 426.77 16.0599 428.964 17.616 430.445C19.1721 431.926 21.197 432.667 23.6908 432.667C26.2643 432.667 28.3292 431.926 29.8853 430.445C31.4613 428.964 32.2494 427.133 32.2494 424.954C32.2494 423.109 31.7406 421.586 30.7232 420.384C29.7257 419.182 28.1696 418.26 26.0549 417.617L18.2145 415.312C13.8055 414.026 10.5436 411.86 8.42893 408.814C6.31421 405.74 5.26683 401.855 5.28678 397.16C5.26683 393.192 6.03491 389.754 7.59102 386.848C9.16708 383.913 11.3516 381.649 14.1446 380.056C16.9576 378.435 20.1995 377.625 23.8703 377.625C29.2569 377.625 33.4963 379.232 36.5885 382.446C39.7007 385.66 41.6259 390.006 42.3641 395.483Z" stroke="white" stroke-width="6" mask="url(#path-1-outside-1_313_54)"/>
<path d="M58.9037 405.125V442.854H48.0708V357H58.6643V389.405H59.203C60.2803 385.772 61.9461 382.907 64.2005 380.811C66.4748 378.687 69.3676 377.625 72.8788 377.625C76.0708 377.625 78.8539 378.561 81.2279 380.434C83.602 382.306 85.4374 385.045 86.7342 388.65C88.0509 392.255 88.7092 396.657 88.7092 401.855V442.854H77.8763V404.203C77.8763 399.871 77.0783 396.503 75.4823 394.1C73.9062 391.668 71.6918 390.453 68.8389 390.453C66.9237 390.453 65.208 391.04 63.6918 392.213C62.1955 393.359 61.0184 395.022 60.1606 397.202C59.3227 399.382 58.9037 402.023 58.9037 405.125Z" stroke="white" stroke-width="6" mask="url(#path-1-outside-1_313_54)"/>
<path d="M115.588 444.111C111.099 444.111 107.209 442.728 103.917 439.961C100.625 437.194 98.0718 433.324 96.2564 428.349C94.4608 423.374 93.5631 417.561 93.5631 410.91C93.5631 404.259 94.4608 398.432 96.2564 393.429C98.0718 388.427 100.625 384.542 103.917 381.775C107.209 379.008 111.099 377.625 115.588 377.625C120.077 377.625 123.967 379.008 127.259 381.775C130.551 384.542 133.094 388.427 134.89 393.429C136.705 398.432 137.613 404.259 137.613 410.91C137.613 417.561 136.705 423.374 134.89 428.349C133.094 433.324 130.551 437.194 127.259 439.961C123.967 442.728 120.077 444.111 115.588 444.111ZM115.648 431.954C118.082 431.954 120.117 431.018 121.753 429.146C123.389 427.245 124.605 424.702 125.403 421.516C126.221 418.33 126.63 414.781 126.63 410.868C126.63 406.928 126.221 403.364 125.403 400.178C124.605 396.964 123.389 394.407 121.753 392.507C120.117 390.606 118.082 389.656 115.648 389.656C113.154 389.656 111.079 390.606 109.423 392.507C107.788 394.407 106.561 396.964 105.743 400.178C104.945 403.364 104.546 406.928 104.546 410.868C104.546 414.781 104.945 418.33 105.743 421.516C106.561 424.702 107.788 427.245 109.423 429.146C111.079 431.018 113.154 431.954 115.648 431.954Z" stroke="white" stroke-width="6" mask="url(#path-1-outside-1_313_54)"/>
<path d="M142.594 467V378.463H153.247V389.111H153.876C154.434 387.546 155.222 385.883 156.24 384.123C157.257 382.334 158.634 380.811 160.37 379.553C162.105 378.268 164.32 377.625 167.013 377.625C170.564 377.625 173.766 378.897 176.619 381.44C179.492 383.955 181.766 387.686 183.442 392.633C185.138 397.551 185.986 403.588 185.986 410.742C185.986 417.813 185.158 423.822 183.502 428.768C181.846 433.715 179.592 437.488 176.739 440.087C173.886 442.686 170.654 443.986 167.043 443.986C164.409 443.986 162.225 443.371 160.489 442.141C158.754 440.911 157.357 439.43 156.3 437.697C155.262 435.937 154.454 434.274 153.876 432.709H153.427V467H142.594ZM153.217 410.659C153.217 414.823 153.636 418.47 154.474 421.6C155.332 424.73 156.559 427.175 158.155 428.936C159.771 430.669 161.726 431.535 164.02 431.535C166.414 431.535 168.419 430.641 170.035 428.852C171.651 427.036 172.868 424.562 173.686 421.432C174.524 418.274 174.943 414.683 174.943 410.659C174.943 406.662 174.534 403.113 173.716 400.011C172.898 396.909 171.681 394.477 170.065 392.716C168.449 390.956 166.434 390.075 164.02 390.075C161.706 390.075 159.741 390.928 158.125 392.633C156.509 394.337 155.282 396.727 154.444 399.801C153.626 402.875 153.217 406.494 153.217 410.659Z" stroke="white" stroke-width="6" mask="url(#path-1-outside-1_313_54)"/>
<path d="M191.049 467V378.463H201.702V389.111H202.331C202.889 387.546 203.677 385.883 204.695 384.123C205.712 382.334 207.089 380.811 208.824 379.553C210.56 378.268 212.775 377.625 215.468 377.625C219.019 377.625 222.221 378.897 225.074 381.44C227.947 383.955 230.221 387.686 231.897 392.633C233.592 397.551 234.44 403.588 234.44 410.742C234.44 417.813 233.612 423.822 231.957 428.768C230.301 433.715 228.046 437.488 225.194 440.087C222.341 442.686 219.109 443.986 215.498 443.986C212.864 443.986 210.68 443.371 208.944 442.141C207.208 440.911 205.812 439.43 204.755 437.697C203.717 435.937 202.909 434.274 202.331 432.709H201.882V467H191.049ZM201.672 410.659C201.672 414.823 202.091 418.47 202.929 421.6C203.787 424.73 205.014 427.175 206.61 428.936C208.226 430.669 210.181 431.535 212.475 431.535C214.869 431.535 216.874 430.641 218.49 428.852C220.106 427.036 221.323 424.562 222.141 421.432C222.979 418.274 223.398 414.683 223.398 410.659C223.398 406.662 222.989 403.113 222.171 400.011C221.353 396.909 220.136 394.477 218.52 392.716C216.904 390.956 214.889 390.075 212.475 390.075C210.161 390.075 208.196 390.928 206.58 392.633C204.964 394.337 203.737 396.727 202.899 399.801C202.081 402.875 201.672 406.494 201.672 410.659Z" stroke="white" stroke-width="6" mask="url(#path-1-outside-1_313_54)"/>
<path d="M252.731 444.153C249.818 444.153 247.195 443.427 244.86 441.973C242.546 440.492 240.711 438.312 239.354 435.434C238.017 432.555 237.349 429.006 237.349 424.786C237.349 421.153 237.828 418.148 238.786 415.773C239.743 413.397 241.05 411.497 242.706 410.072C244.362 408.646 246.227 407.57 248.302 406.844C250.397 406.089 252.561 405.544 254.795 405.209C257.489 404.818 259.673 404.468 261.349 404.161C263.025 403.825 264.242 403.322 265 402.652C265.778 401.953 266.167 400.877 266.167 399.424V399.172C266.167 396.014 265.499 393.569 264.162 391.836C262.825 390.103 260.9 389.237 258.387 389.237C255.733 389.237 253.628 390.048 252.072 391.668C250.536 393.289 249.499 395.204 248.96 397.412L238.845 395.399C239.643 391.487 240.96 388.217 242.795 385.59C244.631 382.935 246.875 380.951 249.529 379.637C252.182 378.296 255.115 377.625 258.327 377.625C260.541 377.625 262.746 377.988 264.94 378.715C267.135 379.442 269.14 380.643 270.955 382.32C272.771 383.969 274.227 386.219 275.324 389.069C276.441 391.92 277 395.483 277 399.759V442.854H266.586V434.008H266.227C265.569 435.797 264.641 437.474 263.444 439.039C262.267 440.576 260.781 441.82 258.985 442.77C257.209 443.692 255.125 444.153 252.731 444.153ZM255.544 433.002C257.718 433.002 259.603 432.401 261.199 431.2C262.795 429.97 264.022 428.349 264.88 426.337C265.758 424.325 266.197 422.131 266.197 419.755V412.168C265.858 412.559 265.279 412.922 264.461 413.258C263.663 413.593 262.766 413.886 261.768 414.138C260.771 414.389 259.783 414.613 258.805 414.809C257.828 415.004 256.98 415.172 256.262 415.312C254.646 415.619 253.2 416.122 251.923 416.821C250.646 417.52 249.638 418.498 248.9 419.755C248.162 420.985 247.793 422.578 247.793 424.534C247.793 427.329 248.521 429.439 249.978 430.864C251.434 432.29 253.289 433.002 255.544 433.002Z" stroke="white" stroke-width="6" mask="url(#path-1-outside-1_313_54)"/>
<path fill-rule="evenodd" clip-rule="evenodd" d="M192.666 65.1943L226.226 58.4554C222.428 41.6082 214.626 28.1772 202.821 18.1625C191.015 8.05416 174.834 3 154.277 3C139.995 3 127.322 5.71427 116.259 11.1428C105.197 16.4778 96.528 23.9186 90.2537 33.4654C83.9793 43.0121 80.8421 54.15 80.8421 66.879C80.8421 82.2287 85.0525 94.9109 93.4734 104.926C99.8406 112.424 108.8 118.402 120.352 122.857L68.7229 125.204C68.3593 119.814 66.9046 109.032 61.0859 99.8684C54.9036 90.1653 45.4482 85.3138 33.0835 84.7747C31.9925 84.7747 30.9015 85.8529 30.9015 88.0091C30.9015 89.6263 31.9925 91.2435 33.0835 91.2435C44.3572 91.7825 52.7215 96.095 58.1766 104.72C64.7226 115.501 64.7226 128.978 64.7226 128.978L70.9049 253.5V282.071C70.9049 283.688 71.9959 285.305 73.0869 285.305H222.554C223.645 285.305 224.736 283.688 224.736 282.071C224.736 280.453 223.645 278.836 222.554 278.836H75.6326V256.735L225.1 228.165C225.827 228.165 226.555 227.087 226.918 226.008L249.102 121.431C249.102 120.353 249.102 119.275 248.375 118.196C248.011 117.657 247.284 117.118 246.557 117.118L213.804 118.608C205.305 110.718 193.347 104.754 177.93 100.714L147.714 92.8518C137.229 90.0439 129.634 86.4405 124.928 82.0415C120.222 77.6425 117.869 71.8396 117.869 64.6327C117.869 56.3027 121.378 49.517 128.395 44.2757C135.413 38.9407 144.164 36.2732 154.648 36.2732C162.326 36.2732 168.725 37.6772 173.843 40.485C178.962 43.2929 183.007 46.8963 185.979 51.2953C189.034 55.6943 191.263 60.3273 192.666 65.1943ZM139.328 128.436L165.051 134.829C174.132 137.169 180.86 140.632 185.236 145.219C189.694 149.805 191.923 155.467 191.923 162.206C191.923 170.536 188.291 177.603 181.026 183.406C173.761 189.115 164.06 191.97 151.924 191.97C140.779 191.97 131.739 189.302 124.804 183.967C117.869 178.539 113.287 170.536 111.058 159.96L75.2695 166.137C78.3241 185.231 86.5799 199.972 100.037 210.361C113.494 220.657 130.872 225.804 152.172 225.804C167.527 225.804 181.026 222.95 192.666 217.24C204.389 211.531 213.512 203.669 220.034 193.654C226.639 183.546 229.941 172.034 229.941 159.117C229.941 145.319 226.429 133.855 219.405 124.727L244.011 123.587L222.918 221.696L75.2689 249.727L69.4502 131.673L139.328 128.436Z" stroke="white" stroke-width="6" mask="url(#path-1-outside-1_313_54)"/>
<path fill-rule="evenodd" clip-rule="evenodd" d="M216.372 327.891C216.372 311.719 207.644 298.782 196.734 298.782C185.824 298.782 177.096 312.258 177.096 327.891C177.096 344.063 185.824 357 196.734 357C207.644 357 216.372 344.063 216.372 327.891ZM212.008 328.43C212.008 340.828 205.098 351.07 196.734 351.07C188.37 351.07 181.46 340.828 181.46 328.43C181.46 316.031 188.37 305.789 196.734 305.789C205.098 305.789 212.008 316.031 212.008 328.43Z" stroke="white" stroke-width="6" mask="url(#path-1-outside-1_313_54)"/>
<path fill-rule="evenodd" clip-rule="evenodd" d="M118.545 327.891C118.545 311.719 109.817 298.782 98.9074 298.782C87.9973 298.782 79.2693 312.258 79.2693 327.891C79.2693 344.063 87.9973 357 98.9074 357C109.817 357 118.545 344.063 118.545 327.891ZM114.181 328.43C114.181 340.828 107.272 351.07 98.9074 351.07C90.543 351.07 83.6333 340.828 83.6333 328.43C83.6333 316.031 90.543 305.789 98.9074 305.789C107.272 305.789 114.181 316.031 114.181 328.43Z" stroke="white" stroke-width="6" mask="url(#path-1-outside-1_313_54)"/>
</svg>
