<svg width="35" height="50" viewBox="0 0 281 470" fill="none" xmlns="http://www.w3.org/2000/svg">
<mask id="path-1-outside-1_310_50" maskUnits="userSpaceOnUse" x="0" y="0" width="281" height="470" fill="black">
<rect fill="white" width="281" height="470"/>
<path d="M42.5046 395.483L32.5931 396.992C32.3128 395.595 31.8222 394.281 31.1214 393.052C30.4406 391.822 29.5196 390.83 28.3582 390.075C27.1969 389.321 25.7752 388.944 24.0933 388.944C21.8307 388.944 19.9285 389.628 18.3867 390.998C16.8649 392.367 16.114 394.142 16.1341 396.322C16.114 398.194 16.6046 399.717 17.6058 400.891C18.6269 402.065 20.3089 403.029 22.6516 403.784L30.5207 406.131C34.8858 407.445 38.1295 409.527 40.252 412.377C42.3945 415.228 43.4757 418.959 43.4958 423.57C43.4757 427.622 42.6248 431.2 40.9428 434.302C39.2809 437.376 36.9682 439.779 34.0048 441.512C31.0413 443.245 27.6374 444.111 23.7929 444.111C18.1464 444.111 13.6011 442.462 10.1571 439.165C6.71314 435.839 4.66077 431.214 4 425.289L14.6023 423.864C15.0828 426.77 16.104 428.964 17.6658 430.445C19.2276 431.926 21.26 432.667 23.7629 432.667C26.3459 432.667 28.4183 431.926 29.9801 430.445C31.5619 428.964 32.3529 427.133 32.3529 424.954C32.3529 423.109 31.8423 421.586 30.8211 420.384C29.8199 419.182 28.2581 418.26 26.1356 417.617L18.2665 415.312C13.8414 414.026 10.5676 411.86 8.44515 408.814C6.32269 405.74 5.27147 401.855 5.2915 397.16C5.27147 393.192 6.04237 389.754 7.60418 386.848C9.18601 383.913 11.3786 381.649 14.1818 380.056C17.0051 378.435 20.2588 377.625 23.9431 377.625C29.3494 377.625 33.6043 379.232 36.7079 382.446C39.8315 385.66 41.7638 390.006 42.5046 395.483Z"/>
<path d="M59.1049 405.125V442.854H48.2323V357H58.8646V389.405H59.4052C60.4864 385.772 62.1584 382.907 64.421 380.811C66.7037 378.687 69.607 377.625 73.1311 377.625C76.3348 377.625 79.128 378.561 81.5108 380.434C83.8936 382.306 85.7357 385.045 87.0372 388.65C88.3587 392.255 89.0195 396.657 89.0195 401.855V442.854H78.1469V404.203C78.1469 399.871 77.346 396.503 75.7441 394.1C74.1623 391.668 71.9397 390.453 69.0764 390.453C67.1542 390.453 65.4322 391.04 63.9104 392.213C62.4087 393.359 61.2273 395.022 60.3663 397.202C59.5253 399.382 59.1049 402.023 59.1049 405.125Z"/>
<path d="M115.997 444.111C111.492 444.111 107.587 442.728 104.283 439.961C100.979 437.194 98.4164 433.324 96.5943 428.349C94.7922 423.374 93.8912 417.561 93.8912 410.91C93.8912 404.259 94.7922 398.432 96.5943 393.429C98.4164 388.427 100.979 384.542 104.283 381.775C107.587 379.008 111.492 377.625 115.997 377.625C120.502 377.625 124.407 379.008 127.71 381.775C131.014 384.542 133.567 388.427 135.369 393.429C137.191 398.432 138.102 404.259 138.102 410.91C138.102 417.561 137.191 423.374 135.369 428.349C133.567 433.324 131.014 437.194 127.71 439.961C124.407 442.728 120.502 444.111 115.997 444.111ZM116.057 431.954C118.5 431.954 120.542 431.018 122.184 429.146C123.826 427.245 125.047 424.702 125.848 421.516C126.669 418.33 127.08 414.781 127.08 410.868C127.08 406.928 126.669 403.364 125.848 400.178C125.047 396.964 123.826 394.407 122.184 392.507C120.542 390.606 118.5 389.656 116.057 389.656C113.554 389.656 111.472 390.606 109.81 392.507C108.168 394.407 106.936 396.964 106.115 400.178C105.314 403.364 104.914 406.928 104.914 410.868C104.914 414.781 105.314 418.33 106.115 421.516C106.936 424.702 108.168 427.245 109.81 429.146C111.472 431.018 113.554 431.954 116.057 431.954Z"/>
<path d="M143.102 467V378.463H153.794V389.111H154.425C154.985 387.546 155.776 385.883 156.798 384.123C157.819 382.334 159.2 380.811 160.942 379.553C162.684 378.268 164.907 377.625 167.61 377.625C171.174 377.625 174.388 378.897 177.251 381.44C180.135 383.955 182.417 387.686 184.099 392.633C185.801 397.551 186.652 403.588 186.652 410.742C186.652 417.813 185.821 423.822 184.159 428.768C182.497 433.715 180.235 437.488 177.371 440.087C174.508 442.686 171.264 443.986 167.64 443.986C164.997 443.986 162.805 443.371 161.062 442.141C159.32 440.911 157.919 439.43 156.858 437.697C155.816 435.937 155.005 434.274 154.425 432.709H153.974V467H143.102ZM153.764 410.659C153.764 414.823 154.185 418.47 155.025 421.6C155.886 424.73 157.118 427.175 158.72 428.936C160.342 430.669 162.304 431.535 164.607 431.535C167.009 431.535 169.022 430.641 170.644 428.852C172.265 427.036 173.487 424.562 174.308 421.432C175.149 418.274 175.569 414.683 175.569 410.659C175.569 406.662 175.159 403.113 174.338 400.011C173.517 396.909 172.296 394.477 170.674 392.716C169.052 390.956 167.029 390.075 164.607 390.075C162.284 390.075 160.312 390.928 158.69 392.633C157.068 394.337 155.836 396.727 154.995 399.801C154.175 402.875 153.764 406.494 153.764 410.659Z"/>
<path d="M191.734 467V378.463H202.426V389.111H203.057C203.618 387.546 204.409 385.883 205.43 384.123C206.451 382.334 207.833 380.811 209.575 379.553C211.317 378.268 213.539 377.625 216.242 377.625C219.807 377.625 223.02 378.897 225.884 381.44C228.767 383.955 231.05 387.686 232.732 392.633C234.433 397.551 235.284 403.588 235.284 410.742C235.284 417.813 234.454 423.822 232.792 428.768C231.13 433.715 228.867 437.488 226.004 440.087C223.14 442.686 219.897 443.986 216.272 443.986C213.629 443.986 211.437 443.371 209.695 442.141C207.953 440.911 206.551 439.43 205.49 437.697C204.449 435.937 203.638 434.274 203.057 432.709H202.607V467H191.734ZM202.396 410.659C202.396 414.823 202.817 418.47 203.658 421.6C204.519 424.73 205.75 427.175 207.352 428.936C208.974 430.669 210.936 431.535 213.239 431.535C215.642 431.535 217.654 430.641 219.276 428.852C220.898 427.036 222.119 424.562 222.94 421.432C223.781 418.274 224.202 414.683 224.202 410.659C224.202 406.662 223.791 403.113 222.97 400.011C222.149 396.909 220.928 394.477 219.306 392.716C217.684 390.956 215.662 390.075 213.239 390.075C210.916 390.075 208.944 390.928 207.322 392.633C205.7 394.337 204.469 396.727 203.628 399.801C202.807 402.875 202.396 406.494 202.396 410.659Z"/>
<path d="M253.642 444.153C250.718 444.153 248.085 443.427 245.743 441.973C243.42 440.492 241.578 438.312 240.216 435.434C238.875 432.555 238.204 429.006 238.204 424.786C238.204 421.153 238.684 418.148 239.646 415.773C240.607 413.397 241.918 411.497 243.58 410.072C245.242 408.646 247.114 407.57 249.197 406.844C251.299 406.089 253.472 405.544 255.714 405.209C258.417 404.818 260.61 404.468 262.292 404.161C263.974 403.825 265.195 403.322 265.956 402.652C266.737 401.953 267.127 400.877 267.127 399.424V399.172C267.127 396.014 266.457 393.569 265.115 391.836C263.773 390.103 261.841 389.237 259.318 389.237C256.655 389.237 254.543 390.048 252.981 391.668C251.439 393.289 250.398 395.204 249.857 397.412L239.706 395.399C240.507 391.487 241.828 388.217 243.67 385.59C245.512 382.935 247.765 380.951 250.428 379.637C253.091 378.296 256.035 377.625 259.258 377.625C261.481 377.625 263.693 377.988 265.896 378.715C268.099 379.442 270.111 380.643 271.933 382.32C273.755 383.969 275.217 386.219 276.318 389.069C277.439 391.92 278 395.483 278 399.759V442.854H267.548V434.008H267.187C266.527 435.797 265.596 437.474 264.394 439.039C263.213 440.576 261.721 441.82 259.919 442.77C258.137 443.692 256.045 444.153 253.642 444.153ZM256.465 433.002C258.648 433.002 260.54 432.401 262.142 431.2C263.743 429.97 264.975 428.349 265.836 426.337C266.717 424.325 267.157 422.131 267.157 419.755V412.168C266.817 412.559 266.236 412.922 265.415 413.258C264.614 413.593 263.713 413.886 262.712 414.138C261.711 414.389 260.72 414.613 259.739 414.809C258.758 415.004 257.907 415.172 257.186 415.312C255.564 415.619 254.112 416.122 252.831 416.821C251.549 417.52 250.538 418.498 249.797 419.755C249.056 420.985 248.686 422.578 248.686 424.534C248.686 427.329 249.417 429.439 250.879 430.864C252.34 432.29 254.202 433.002 256.465 433.002Z"/>
<path fill-rule="evenodd" clip-rule="evenodd" d="M193.357 65.1943L227.04 58.4554C223.228 41.6082 215.398 28.1772 203.549 18.1625C191.7 8.05416 175.46 3 154.827 3C140.493 3 127.774 5.71427 116.67 11.1428C105.567 16.4778 96.867 23.9186 90.5696 33.4654C84.2723 43.0121 81.1236 54.15 81.1236 66.879C81.1236 82.2287 85.3494 94.9109 93.8011 104.926C100.192 112.424 109.184 118.402 120.778 122.857L68.96 125.204C68.595 119.814 67.135 109.032 61.295 99.8684C55.09 90.1653 45.6 85.3138 33.19 84.7747C32.095 84.7747 31 85.8529 31 88.0091C31 89.6263 32.095 91.2435 33.19 91.2435C44.505 91.7825 52.9 96.095 58.375 104.72C64.945 115.501 64.945 128.978 64.945 128.978L71.15 253.5V282.071C71.15 283.688 72.245 285.305 73.34 285.305H223.355C224.45 285.305 225.545 283.688 225.545 282.071C225.545 280.453 224.45 278.836 223.355 278.836H75.895V256.735L225.91 228.165C226.64 228.165 227.37 227.087 227.735 226.008L250 121.431C250 120.353 250 119.275 249.27 118.196C248.905 117.657 248.175 117.118 247.445 117.118L214.573 118.608C206.043 110.718 194.041 104.754 178.567 100.714L148.24 92.8518C137.717 90.0439 130.094 86.4405 125.371 82.0415C120.648 77.6425 118.286 71.8396 118.286 64.6327C118.286 56.3027 121.808 49.517 128.851 44.2757C135.894 38.9407 144.677 36.2732 155.2 36.2732C162.906 36.2732 169.328 37.6772 174.465 40.485C179.603 43.2929 183.663 46.8963 186.646 51.2953C189.711 55.6943 191.949 60.3273 193.357 65.1943ZM139.823 128.436L165.641 134.829C174.755 137.169 181.508 140.632 185.9 145.219C190.374 149.805 192.612 155.467 192.612 162.206C192.612 170.536 188.966 177.603 181.674 183.406C174.382 189.115 164.646 191.97 152.466 191.97C141.28 191.97 132.207 189.302 125.246 183.967C118.286 178.539 113.688 170.536 111.45 159.96L75.5305 166.137C78.5964 185.231 86.8823 199.972 100.389 210.361C113.895 220.657 131.337 225.804 152.715 225.804C168.126 225.804 181.674 222.95 193.357 217.24C205.123 211.531 214.279 203.669 220.825 193.654C227.454 183.546 230.768 172.034 230.768 159.117C230.768 145.319 227.244 133.855 220.194 124.727L244.89 123.587L223.72 221.696L75.53 249.727L69.69 131.673L139.823 128.436Z"/>
<path fill-rule="evenodd" clip-rule="evenodd" d="M217.15 327.891C217.15 311.719 208.39 298.782 197.44 298.782C186.49 298.782 177.73 312.258 177.73 327.891C177.73 344.063 186.49 357 197.44 357C208.39 357 217.15 344.063 217.15 327.891ZM212.77 328.43C212.77 340.828 205.835 351.07 197.44 351.07C189.045 351.07 182.11 340.828 182.11 328.43C182.11 316.031 189.045 305.789 197.44 305.789C205.835 305.789 212.77 316.031 212.77 328.43Z"/>
<path fill-rule="evenodd" clip-rule="evenodd" d="M118.965 327.891C118.965 311.719 110.205 298.782 99.255 298.782C88.305 298.782 79.545 312.258 79.545 327.891C79.545 344.063 88.305 357 99.255 357C110.205 357 118.965 344.063 118.965 327.891ZM114.585 328.43C114.585 340.828 107.65 351.07 99.255 351.07C90.86 351.07 83.925 340.828 83.925 328.43C83.925 316.031 90.86 305.789 99.255 305.789C107.65 305.789 114.585 316.031 114.585 328.43Z"/>
</mask>
<path d="M42.5046 395.483L32.5931 396.992C32.3128 395.595 31.8222 394.281 31.1214 393.052C30.4406 391.822 29.5196 390.83 28.3582 390.075C27.1969 389.321 25.7752 388.944 24.0933 388.944C21.8307 388.944 19.9285 389.628 18.3867 390.998C16.8649 392.367 16.114 394.142 16.1341 396.322C16.114 398.194 16.6046 399.717 17.6058 400.891C18.6269 402.065 20.3089 403.029 22.6516 403.784L30.5207 406.131C34.8858 407.445 38.1295 409.527 40.252 412.377C42.3945 415.228 43.4757 418.959 43.4958 423.57C43.4757 427.622 42.6248 431.2 40.9428 434.302C39.2809 437.376 36.9682 439.779 34.0048 441.512C31.0413 443.245 27.6374 444.111 23.7929 444.111C18.1464 444.111 13.6011 442.462 10.1571 439.165C6.71314 435.839 4.66077 431.214 4 425.289L14.6023 423.864C15.0828 426.77 16.104 428.964 17.6658 430.445C19.2276 431.926 21.26 432.667 23.7629 432.667C26.3459 432.667 28.4183 431.926 29.9801 430.445C31.5619 428.964 32.3529 427.133 32.3529 424.954C32.3529 423.109 31.8423 421.586 30.8211 420.384C29.8199 419.182 28.2581 418.26 26.1356 417.617L18.2665 415.312C13.8414 414.026 10.5676 411.86 8.44515 408.814C6.32269 405.74 5.27147 401.855 5.2915 397.16C5.27147 393.192 6.04237 389.754 7.60418 386.848C9.18601 383.913 11.3786 381.649 14.1818 380.056C17.0051 378.435 20.2588 377.625 23.9431 377.625C29.3494 377.625 33.6043 379.232 36.7079 382.446C39.8315 385.66 41.7638 390.006 42.5046 395.483Z" fill="black"/>
<path d="M59.1049 405.125V442.854H48.2323V357H58.8646V389.405H59.4052C60.4864 385.772 62.1584 382.907 64.421 380.811C66.7037 378.687 69.607 377.625 73.1311 377.625C76.3348 377.625 79.128 378.561 81.5108 380.434C83.8936 382.306 85.7357 385.045 87.0372 388.65C88.3587 392.255 89.0195 396.657 89.0195 401.855V442.854H78.1469V404.203C78.1469 399.871 77.346 396.503 75.7441 394.1C74.1623 391.668 71.9397 390.453 69.0764 390.453C67.1542 390.453 65.4322 391.04 63.9104 392.213C62.4087 393.359 61.2273 395.022 60.3663 397.202C59.5253 399.382 59.1049 402.023 59.1049 405.125Z" fill="black"/>
<path d="M115.997 444.111C111.492 444.111 107.587 442.728 104.283 439.961C100.979 437.194 98.4164 433.324 96.5943 428.349C94.7922 423.374 93.8912 417.561 93.8912 410.91C93.8912 404.259 94.7922 398.432 96.5943 393.429C98.4164 388.427 100.979 384.542 104.283 381.775C107.587 379.008 111.492 377.625 115.997 377.625C120.502 377.625 124.407 379.008 127.71 381.775C131.014 384.542 133.567 388.427 135.369 393.429C137.191 398.432 138.102 404.259 138.102 410.91C138.102 417.561 137.191 423.374 135.369 428.349C133.567 433.324 131.014 437.194 127.71 439.961C124.407 442.728 120.502 444.111 115.997 444.111ZM116.057 431.954C118.5 431.954 120.542 431.018 122.184 429.146C123.826 427.245 125.047 424.702 125.848 421.516C126.669 418.33 127.08 414.781 127.08 410.868C127.08 406.928 126.669 403.364 125.848 400.178C125.047 396.964 123.826 394.407 122.184 392.507C120.542 390.606 118.5 389.656 116.057 389.656C113.554 389.656 111.472 390.606 109.81 392.507C108.168 394.407 106.936 396.964 106.115 400.178C105.314 403.364 104.914 406.928 104.914 410.868C104.914 414.781 105.314 418.33 106.115 421.516C106.936 424.702 108.168 427.245 109.81 429.146C111.472 431.018 113.554 431.954 116.057 431.954Z" fill="black"/>
<path d="M143.102 467V378.463H153.794V389.111H154.425C154.985 387.546 155.776 385.883 156.798 384.123C157.819 382.334 159.2 380.811 160.942 379.553C162.684 378.268 164.907 377.625 167.61 377.625C171.174 377.625 174.388 378.897 177.251 381.44C180.135 383.955 182.417 387.686 184.099 392.633C185.801 397.551 186.652 403.588 186.652 410.742C186.652 417.813 185.821 423.822 184.159 428.768C182.497 433.715 180.235 437.488 177.371 440.087C174.508 442.686 171.264 443.986 167.64 443.986C164.997 443.986 162.805 443.371 161.062 442.141C159.32 440.911 157.919 439.43 156.858 437.697C155.816 435.937 155.005 434.274 154.425 432.709H153.974V467H143.102ZM153.764 410.659C153.764 414.823 154.185 418.47 155.025 421.6C155.886 424.73 157.118 427.175 158.72 428.936C160.342 430.669 162.304 431.535 164.607 431.535C167.009 431.535 169.022 430.641 170.644 428.852C172.265 427.036 173.487 424.562 174.308 421.432C175.149 418.274 175.569 414.683 175.569 410.659C175.569 406.662 175.159 403.113 174.338 400.011C173.517 396.909 172.296 394.477 170.674 392.716C169.052 390.956 167.029 390.075 164.607 390.075C162.284 390.075 160.312 390.928 158.69 392.633C157.068 394.337 155.836 396.727 154.995 399.801C154.175 402.875 153.764 406.494 153.764 410.659Z" fill="black"/>
<path d="M191.734 467V378.463H202.426V389.111H203.057C203.618 387.546 204.409 385.883 205.43 384.123C206.451 382.334 207.833 380.811 209.575 379.553C211.317 378.268 213.539 377.625 216.242 377.625C219.807 377.625 223.02 378.897 225.884 381.44C228.767 383.955 231.05 387.686 232.732 392.633C234.433 397.551 235.284 403.588 235.284 410.742C235.284 417.813 234.454 423.822 232.792 428.768C231.13 433.715 228.867 437.488 226.004 440.087C223.14 442.686 219.897 443.986 216.272 443.986C213.629 443.986 211.437 443.371 209.695 442.141C207.953 440.911 206.551 439.43 205.49 437.697C204.449 435.937 203.638 434.274 203.057 432.709H202.607V467H191.734ZM202.396 410.659C202.396 414.823 202.817 418.47 203.658 421.6C204.519 424.73 205.75 427.175 207.352 428.936C208.974 430.669 210.936 431.535 213.239 431.535C215.642 431.535 217.654 430.641 219.276 428.852C220.898 427.036 222.119 424.562 222.94 421.432C223.781 418.274 224.202 414.683 224.202 410.659C224.202 406.662 223.791 403.113 222.97 400.011C222.149 396.909 220.928 394.477 219.306 392.716C217.684 390.956 215.662 390.075 213.239 390.075C210.916 390.075 208.944 390.928 207.322 392.633C205.7 394.337 204.469 396.727 203.628 399.801C202.807 402.875 202.396 406.494 202.396 410.659Z" fill="black"/>
<path d="M253.642 444.153C250.718 444.153 248.085 443.427 245.743 441.973C243.42 440.492 241.578 438.312 240.216 435.434C238.875 432.555 238.204 429.006 238.204 424.786C238.204 421.153 238.684 418.148 239.646 415.773C240.607 413.397 241.918 411.497 243.58 410.072C245.242 408.646 247.114 407.57 249.197 406.844C251.299 406.089 253.472 405.544 255.714 405.209C258.417 404.818 260.61 404.468 262.292 404.161C263.974 403.825 265.195 403.322 265.956 402.652C266.737 401.953 267.127 400.877 267.127 399.424V399.172C267.127 396.014 266.457 393.569 265.115 391.836C263.773 390.103 261.841 389.237 259.318 389.237C256.655 389.237 254.543 390.048 252.981 391.668C251.439 393.289 250.398 395.204 249.857 397.412L239.706 395.399C240.507 391.487 241.828 388.217 243.67 385.59C245.512 382.935 247.765 380.951 250.428 379.637C253.091 378.296 256.035 377.625 259.258 377.625C261.481 377.625 263.693 377.988 265.896 378.715C268.099 379.442 270.111 380.643 271.933 382.32C273.755 383.969 275.217 386.219 276.318 389.069C277.439 391.92 278 395.483 278 399.759V442.854H267.548V434.008H267.187C266.527 435.797 265.596 437.474 264.394 439.039C263.213 440.576 261.721 441.82 259.919 442.77C258.137 443.692 256.045 444.153 253.642 444.153ZM256.465 433.002C258.648 433.002 260.54 432.401 262.142 431.2C263.743 429.97 264.975 428.349 265.836 426.337C266.717 424.325 267.157 422.131 267.157 419.755V412.168C266.817 412.559 266.236 412.922 265.415 413.258C264.614 413.593 263.713 413.886 262.712 414.138C261.711 414.389 260.72 414.613 259.739 414.809C258.758 415.004 257.907 415.172 257.186 415.312C255.564 415.619 254.112 416.122 252.831 416.821C251.549 417.52 250.538 418.498 249.797 419.755C249.056 420.985 248.686 422.578 248.686 424.534C248.686 427.329 249.417 429.439 250.879 430.864C252.34 432.29 254.202 433.002 256.465 433.002Z" fill="black"/>
<path fill-rule="evenodd" clip-rule="evenodd" d="M193.357 65.1943L227.04 58.4554C223.228 41.6082 215.398 28.1772 203.549 18.1625C191.7 8.05416 175.46 3 154.827 3C140.493 3 127.774 5.71427 116.67 11.1428C105.567 16.4778 96.867 23.9186 90.5696 33.4654C84.2723 43.0121 81.1236 54.15 81.1236 66.879C81.1236 82.2287 85.3494 94.9109 93.8011 104.926C100.192 112.424 109.184 118.402 120.778 122.857L68.96 125.204C68.595 119.814 67.135 109.032 61.295 99.8684C55.09 90.1653 45.6 85.3138 33.19 84.7747C32.095 84.7747 31 85.8529 31 88.0091C31 89.6263 32.095 91.2435 33.19 91.2435C44.505 91.7825 52.9 96.095 58.375 104.72C64.945 115.501 64.945 128.978 64.945 128.978L71.15 253.5V282.071C71.15 283.688 72.245 285.305 73.34 285.305H223.355C224.45 285.305 225.545 283.688 225.545 282.071C225.545 280.453 224.45 278.836 223.355 278.836H75.895V256.735L225.91 228.165C226.64 228.165 227.37 227.087 227.735 226.008L250 121.431C250 120.353 250 119.275 249.27 118.196C248.905 117.657 248.175 117.118 247.445 117.118L214.573 118.608C206.043 110.718 194.041 104.754 178.567 100.714L148.24 92.8518C137.717 90.0439 130.094 86.4405 125.371 82.0415C120.648 77.6425 118.286 71.8396 118.286 64.6327C118.286 56.3027 121.808 49.517 128.851 44.2757C135.894 38.9407 144.677 36.2732 155.2 36.2732C162.906 36.2732 169.328 37.6772 174.465 40.485C179.603 43.2929 183.663 46.8963 186.646 51.2953C189.711 55.6943 191.949 60.3273 193.357 65.1943ZM139.823 128.436L165.641 134.829C174.755 137.169 181.508 140.632 185.9 145.219C190.374 149.805 192.612 155.467 192.612 162.206C192.612 170.536 188.966 177.603 181.674 183.406C174.382 189.115 164.646 191.97 152.466 191.97C141.28 191.97 132.207 189.302 125.246 183.967C118.286 178.539 113.688 170.536 111.45 159.96L75.5305 166.137C78.5964 185.231 86.8823 199.972 100.389 210.361C113.895 220.657 131.337 225.804 152.715 225.804C168.126 225.804 181.674 222.95 193.357 217.24C205.123 211.531 214.279 203.669 220.825 193.654C227.454 183.546 230.768 172.034 230.768 159.117C230.768 145.319 227.244 133.855 220.194 124.727L244.89 123.587L223.72 221.696L75.53 249.727L69.69 131.673L139.823 128.436Z" fill="black"/>
<path fill-rule="evenodd" clip-rule="evenodd" d="M217.15 327.891C217.15 311.719 208.39 298.782 197.44 298.782C186.49 298.782 177.73 312.258 177.73 327.891C177.73 344.063 186.49 357 197.44 357C208.39 357 217.15 344.063 217.15 327.891ZM212.77 328.43C212.77 340.828 205.835 351.07 197.44 351.07C189.045 351.07 182.11 340.828 182.11 328.43C182.11 316.031 189.045 305.789 197.44 305.789C205.835 305.789 212.77 316.031 212.77 328.43Z" fill="black"/>
<path fill-rule="evenodd" clip-rule="evenodd" d="M118.965 327.891C118.965 311.719 110.205 298.782 99.255 298.782C88.305 298.782 79.545 312.258 79.545 327.891C79.545 344.063 88.305 357 99.255 357C110.205 357 118.965 344.063 118.965 327.891ZM114.585 328.43C114.585 340.828 107.65 351.07 99.255 351.07C90.86 351.07 83.925 340.828 83.925 328.43C83.925 316.031 90.86 305.789 99.255 305.789C107.65 305.789 114.585 316.031 114.585 328.43Z" fill="black"/>
<path d="M42.5046 395.483L32.5931 396.992C32.3128 395.595 31.8222 394.281 31.1214 393.052C30.4406 391.822 29.5196 390.83 28.3582 390.075C27.1969 389.321 25.7752 388.944 24.0933 388.944C21.8307 388.944 19.9285 389.628 18.3867 390.998C16.8649 392.367 16.114 394.142 16.1341 396.322C16.114 398.194 16.6046 399.717 17.6058 400.891C18.6269 402.065 20.3089 403.029 22.6516 403.784L30.5207 406.131C34.8858 407.445 38.1295 409.527 40.252 412.377C42.3945 415.228 43.4757 418.959 43.4958 423.57C43.4757 427.622 42.6248 431.2 40.9428 434.302C39.2809 437.376 36.9682 439.779 34.0048 441.512C31.0413 443.245 27.6374 444.111 23.7929 444.111C18.1464 444.111 13.6011 442.462 10.1571 439.165C6.71314 435.839 4.66077 431.214 4 425.289L14.6023 423.864C15.0828 426.77 16.104 428.964 17.6658 430.445C19.2276 431.926 21.26 432.667 23.7629 432.667C26.3459 432.667 28.4183 431.926 29.9801 430.445C31.5619 428.964 32.3529 427.133 32.3529 424.954C32.3529 423.109 31.8423 421.586 30.8211 420.384C29.8199 419.182 28.2581 418.26 26.1356 417.617L18.2665 415.312C13.8414 414.026 10.5676 411.86 8.44515 408.814C6.32269 405.74 5.27147 401.855 5.2915 397.16C5.27147 393.192 6.04237 389.754 7.60418 386.848C9.18601 383.913 11.3786 381.649 14.1818 380.056C17.0051 378.435 20.2588 377.625 23.9431 377.625C29.3494 377.625 33.6043 379.232 36.7079 382.446C39.8315 385.66 41.7638 390.006 42.5046 395.483Z" stroke="black" stroke-width="6" mask="url(#path-1-outside-1_310_50)"/>
<path d="M59.1049 405.125V442.854H48.2323V357H58.8646V389.405H59.4052C60.4864 385.772 62.1584 382.907 64.421 380.811C66.7037 378.687 69.607 377.625 73.1311 377.625C76.3348 377.625 79.128 378.561 81.5108 380.434C83.8936 382.306 85.7357 385.045 87.0372 388.65C88.3587 392.255 89.0195 396.657 89.0195 401.855V442.854H78.1469V404.203C78.1469 399.871 77.346 396.503 75.7441 394.1C74.1623 391.668 71.9397 390.453 69.0764 390.453C67.1542 390.453 65.4322 391.04 63.9104 392.213C62.4087 393.359 61.2273 395.022 60.3663 397.202C59.5253 399.382 59.1049 402.023 59.1049 405.125Z" stroke="black" stroke-width="6" mask="url(#path-1-outside-1_310_50)"/>
<path d="M115.997 444.111C111.492 444.111 107.587 442.728 104.283 439.961C100.979 437.194 98.4164 433.324 96.5943 428.349C94.7922 423.374 93.8912 417.561 93.8912 410.91C93.8912 404.259 94.7922 398.432 96.5943 393.429C98.4164 388.427 100.979 384.542 104.283 381.775C107.587 379.008 111.492 377.625 115.997 377.625C120.502 377.625 124.407 379.008 127.71 381.775C131.014 384.542 133.567 388.427 135.369 393.429C137.191 398.432 138.102 404.259 138.102 410.91C138.102 417.561 137.191 423.374 135.369 428.349C133.567 433.324 131.014 437.194 127.71 439.961C124.407 442.728 120.502 444.111 115.997 444.111ZM116.057 431.954C118.5 431.954 120.542 431.018 122.184 429.146C123.826 427.245 125.047 424.702 125.848 421.516C126.669 418.33 127.08 414.781 127.08 410.868C127.08 406.928 126.669 403.364 125.848 400.178C125.047 396.964 123.826 394.407 122.184 392.507C120.542 390.606 118.5 389.656 116.057 389.656C113.554 389.656 111.472 390.606 109.81 392.507C108.168 394.407 106.936 396.964 106.115 400.178C105.314 403.364 104.914 406.928 104.914 410.868C104.914 414.781 105.314 418.33 106.115 421.516C106.936 424.702 108.168 427.245 109.81 429.146C111.472 431.018 113.554 431.954 116.057 431.954Z" stroke="black" stroke-width="6" mask="url(#path-1-outside-1_310_50)"/>
<path d="M143.102 467V378.463H153.794V389.111H154.425C154.985 387.546 155.776 385.883 156.798 384.123C157.819 382.334 159.2 380.811 160.942 379.553C162.684 378.268 164.907 377.625 167.61 377.625C171.174 377.625 174.388 378.897 177.251 381.44C180.135 383.955 182.417 387.686 184.099 392.633C185.801 397.551 186.652 403.588 186.652 410.742C186.652 417.813 185.821 423.822 184.159 428.768C182.497 433.715 180.235 437.488 177.371 440.087C174.508 442.686 171.264 443.986 167.64 443.986C164.997 443.986 162.805 443.371 161.062 442.141C159.32 440.911 157.919 439.43 156.858 437.697C155.816 435.937 155.005 434.274 154.425 432.709H153.974V467H143.102ZM153.764 410.659C153.764 414.823 154.185 418.47 155.025 421.6C155.886 424.73 157.118 427.175 158.72 428.936C160.342 430.669 162.304 431.535 164.607 431.535C167.009 431.535 169.022 430.641 170.644 428.852C172.265 427.036 173.487 424.562 174.308 421.432C175.149 418.274 175.569 414.683 175.569 410.659C175.569 406.662 175.159 403.113 174.338 400.011C173.517 396.909 172.296 394.477 170.674 392.716C169.052 390.956 167.029 390.075 164.607 390.075C162.284 390.075 160.312 390.928 158.69 392.633C157.068 394.337 155.836 396.727 154.995 399.801C154.175 402.875 153.764 406.494 153.764 410.659Z" stroke="black" stroke-width="6" mask="url(#path-1-outside-1_310_50)"/>
<path d="M191.734 467V378.463H202.426V389.111H203.057C203.618 387.546 204.409 385.883 205.43 384.123C206.451 382.334 207.833 380.811 209.575 379.553C211.317 378.268 213.539 377.625 216.242 377.625C219.807 377.625 223.02 378.897 225.884 381.44C228.767 383.955 231.05 387.686 232.732 392.633C234.433 397.551 235.284 403.588 235.284 410.742C235.284 417.813 234.454 423.822 232.792 428.768C231.13 433.715 228.867 437.488 226.004 440.087C223.14 442.686 219.897 443.986 216.272 443.986C213.629 443.986 211.437 443.371 209.695 442.141C207.953 440.911 206.551 439.43 205.49 437.697C204.449 435.937 203.638 434.274 203.057 432.709H202.607V467H191.734ZM202.396 410.659C202.396 414.823 202.817 418.47 203.658 421.6C204.519 424.73 205.75 427.175 207.352 428.936C208.974 430.669 210.936 431.535 213.239 431.535C215.642 431.535 217.654 430.641 219.276 428.852C220.898 427.036 222.119 424.562 222.94 421.432C223.781 418.274 224.202 414.683 224.202 410.659C224.202 406.662 223.791 403.113 222.97 400.011C222.149 396.909 220.928 394.477 219.306 392.716C217.684 390.956 215.662 390.075 213.239 390.075C210.916 390.075 208.944 390.928 207.322 392.633C205.7 394.337 204.469 396.727 203.628 399.801C202.807 402.875 202.396 406.494 202.396 410.659Z" stroke="black" stroke-width="6" mask="url(#path-1-outside-1_310_50)"/>
<path d="M253.642 444.153C250.718 444.153 248.085 443.427 245.743 441.973C243.42 440.492 241.578 438.312 240.216 435.434C238.875 432.555 238.204 429.006 238.204 424.786C238.204 421.153 238.684 418.148 239.646 415.773C240.607 413.397 241.918 411.497 243.58 410.072C245.242 408.646 247.114 407.57 249.197 406.844C251.299 406.089 253.472 405.544 255.714 405.209C258.417 404.818 260.61 404.468 262.292 404.161C263.974 403.825 265.195 403.322 265.956 402.652C266.737 401.953 267.127 400.877 267.127 399.424V399.172C267.127 396.014 266.457 393.569 265.115 391.836C263.773 390.103 261.841 389.237 259.318 389.237C256.655 389.237 254.543 390.048 252.981 391.668C251.439 393.289 250.398 395.204 249.857 397.412L239.706 395.399C240.507 391.487 241.828 388.217 243.67 385.59C245.512 382.935 247.765 380.951 250.428 379.637C253.091 378.296 256.035 377.625 259.258 377.625C261.481 377.625 263.693 377.988 265.896 378.715C268.099 379.442 270.111 380.643 271.933 382.32C273.755 383.969 275.217 386.219 276.318 389.069C277.439 391.92 278 395.483 278 399.759V442.854H267.548V434.008H267.187C266.527 435.797 265.596 437.474 264.394 439.039C263.213 440.576 261.721 441.82 259.919 442.77C258.137 443.692 256.045 444.153 253.642 444.153ZM256.465 433.002C258.648 433.002 260.54 432.401 262.142 431.2C263.743 429.97 264.975 428.349 265.836 426.337C266.717 424.325 267.157 422.131 267.157 419.755V412.168C266.817 412.559 266.236 412.922 265.415 413.258C264.614 413.593 263.713 413.886 262.712 414.138C261.711 414.389 260.72 414.613 259.739 414.809C258.758 415.004 257.907 415.172 257.186 415.312C255.564 415.619 254.112 416.122 252.831 416.821C251.549 417.52 250.538 418.498 249.797 419.755C249.056 420.985 248.686 422.578 248.686 424.534C248.686 427.329 249.417 429.439 250.879 430.864C252.34 432.29 254.202 433.002 256.465 433.002Z" stroke="black" stroke-width="6" mask="url(#path-1-outside-1_310_50)"/>
<path fill-rule="evenodd" clip-rule="evenodd" d="M193.357 65.1943L227.04 58.4554C223.228 41.6082 215.398 28.1772 203.549 18.1625C191.7 8.05416 175.46 3 154.827 3C140.493 3 127.774 5.71427 116.67 11.1428C105.567 16.4778 96.867 23.9186 90.5696 33.4654C84.2723 43.0121 81.1236 54.15 81.1236 66.879C81.1236 82.2287 85.3494 94.9109 93.8011 104.926C100.192 112.424 109.184 118.402 120.778 122.857L68.96 125.204C68.595 119.814 67.135 109.032 61.295 99.8684C55.09 90.1653 45.6 85.3138 33.19 84.7747C32.095 84.7747 31 85.8529 31 88.0091C31 89.6263 32.095 91.2435 33.19 91.2435C44.505 91.7825 52.9 96.095 58.375 104.72C64.945 115.501 64.945 128.978 64.945 128.978L71.15 253.5V282.071C71.15 283.688 72.245 285.305 73.34 285.305H223.355C224.45 285.305 225.545 283.688 225.545 282.071C225.545 280.453 224.45 278.836 223.355 278.836H75.895V256.735L225.91 228.165C226.64 228.165 227.37 227.087 227.735 226.008L250 121.431C250 120.353 250 119.275 249.27 118.196C248.905 117.657 248.175 117.118 247.445 117.118L214.573 118.608C206.043 110.718 194.041 104.754 178.567 100.714L148.24 92.8518C137.717 90.0439 130.094 86.4405 125.371 82.0415C120.648 77.6425 118.286 71.8396 118.286 64.6327C118.286 56.3027 121.808 49.517 128.851 44.2757C135.894 38.9407 144.677 36.2732 155.2 36.2732C162.906 36.2732 169.328 37.6772 174.465 40.485C179.603 43.2929 183.663 46.8963 186.646 51.2953C189.711 55.6943 191.949 60.3273 193.357 65.1943ZM139.823 128.436L165.641 134.829C174.755 137.169 181.508 140.632 185.9 145.219C190.374 149.805 192.612 155.467 192.612 162.206C192.612 170.536 188.966 177.603 181.674 183.406C174.382 189.115 164.646 191.97 152.466 191.97C141.28 191.97 132.207 189.302 125.246 183.967C118.286 178.539 113.688 170.536 111.45 159.96L75.5305 166.137C78.5964 185.231 86.8823 199.972 100.389 210.361C113.895 220.657 131.337 225.804 152.715 225.804C168.126 225.804 181.674 222.95 193.357 217.24C205.123 211.531 214.279 203.669 220.825 193.654C227.454 183.546 230.768 172.034 230.768 159.117C230.768 145.319 227.244 133.855 220.194 124.727L244.89 123.587L223.72 221.696L75.53 249.727L69.69 131.673L139.823 128.436Z" stroke="black" stroke-width="6" mask="url(#path-1-outside-1_310_50)"/>
<path fill-rule="evenodd" clip-rule="evenodd" d="M217.15 327.891C217.15 311.719 208.39 298.782 197.44 298.782C186.49 298.782 177.73 312.258 177.73 327.891C177.73 344.063 186.49 357 197.44 357C208.39 357 217.15 344.063 217.15 327.891ZM212.77 328.43C212.77 340.828 205.835 351.07 197.44 351.07C189.045 351.07 182.11 340.828 182.11 328.43C182.11 316.031 189.045 305.789 197.44 305.789C205.835 305.789 212.77 316.031 212.77 328.43Z" stroke="black" stroke-width="6" mask="url(#path-1-outside-1_310_50)"/>
<path fill-rule="evenodd" clip-rule="evenodd" d="M118.965 327.891C118.965 311.719 110.205 298.782 99.255 298.782C88.305 298.782 79.545 312.258 79.545 327.891C79.545 344.063 88.305 357 99.255 357C110.205 357 118.965 344.063 118.965 327.891ZM114.585 328.43C114.585 340.828 107.65 351.07 99.255 351.07C90.86 351.07 83.925 340.828 83.925 328.43C83.925 316.031 90.86 305.789 99.255 305.789C107.65 305.789 114.585 316.031 114.585 328.43Z" stroke="black" stroke-width="6" mask="url(#path-1-outside-1_310_50)"/>
</svg>
